<mxfile host="drawio-plugin" modified="2023-02-15T20:47:51.800Z" agent="5.0 (Macintosh; Intel Mac OS X 10_15_7) AppleWebKit/537.36 (KHTML, like Gecko) Chrome/104.0.5112.102 Safari/537.36" etag="E_Suj1NQibBuelHYyKy5" version="20.5.3" type="embed" pages="2"><diagram id="JSrcArIyG3kDKEfSRT3X" name="Spring Web"><mxGraphModel dx="1104" dy="543" grid="1" gridSize="10" guides="1" tooltips="1" connect="1" arrows="1" fold="1" page="1" pageScale="1" pageWidth="1200" pageHeight="1920" math="0" shadow="0"><root><mxCell id="0"/><mxCell id="1" parent="0"/><mxCell id="39" value="" style="rounded=1;whiteSpace=wrap;html=1;fillColor=none;dashed=1;strokeWidth=2;strokeColor=#007FFF;arcSize=3;" parent="1" vertex="1"><mxGeometry x="40" y="510" width="1140" height="1390" as="geometry"/></mxCell><mxCell id="146" value="" style="rounded=1;whiteSpace=wrap;html=1;fillColor=none;dashed=1;strokeWidth=2;strokeColor=#CC0066;arcSize=3;" parent="1" vertex="1"><mxGeometry x="60" y="1410" width="1090" height="470" as="geometry"/></mxCell><mxCell id="40" value="" style="rounded=1;whiteSpace=wrap;html=1;fillColor=none;dashed=1;strokeWidth=2;strokeColor=#B5739D;arcSize=6;" parent="1" vertex="1"><mxGeometry x="40" y="40" width="1140" height="440" as="geometry"/></mxCell><mxCell id="29" style="rounded=0;orthogonalLoop=1;jettySize=auto;html=1;exitX=0.5;exitY=0;exitDx=0;exitDy=0;entryX=0.488;entryY=0.962;entryDx=0;entryDy=0;entryPerimeter=0;endArrow=block;endFill=0;edgeStyle=orthogonalEdgeStyle;" parent="1" source="2" target="9" edge="1"><mxGeometry relative="1" as="geometry"/></mxCell><mxCell id="101" style="rounded=0;orthogonalLoop=1;jettySize=auto;html=1;exitX=0;exitY=0.5;exitDx=0;exitDy=0;entryX=1;entryY=0.25;entryDx=0;entryDy=0;dashed=1;edgeStyle=orthogonalEdgeStyle;" parent="1" source="127" target="111" edge="1"><mxGeometry relative="1" as="geometry"><Array as="points"><mxPoint x="380" y="1174"/><mxPoint x="380" y="1103"/></Array></mxGeometry></mxCell><mxCell id="102" value="&lt;b&gt;&lt;font style=&quot;font-size: 14px;&quot;&gt;*&lt;/font&gt;&lt;/b&gt;" style="edgeLabel;html=1;align=center;verticalAlign=middle;resizable=0;points=[];" parent="101" vertex="1" connectable="0"><mxGeometry x="0.8127" y="-2" relative="1" as="geometry"><mxPoint as="offset"/></mxGeometry></mxCell><mxCell id="130" value="&lt;font face=&quot;Helvetica&quot;&gt;returns&lt;/font&gt;" style="edgeLabel;html=1;align=center;verticalAlign=middle;resizable=0;points=[];fontSize=12;fontFamily=Courier New;fontColor=#000000;" parent="101" vertex="1" connectable="0"><mxGeometry x="-0.1116" relative="1" as="geometry"><mxPoint x="1" y="1" as="offset"/></mxGeometry></mxCell><mxCell id="2" value="DispatcherServlet" style="swimlane;fontStyle=1;align=center;verticalAlign=top;childLayout=stackLayout;horizontal=1;startSize=26;horizontalStack=0;resizeParent=1;resizeParentMax=0;resizeLast=0;collapsible=1;marginBottom=0;fillColor=#008a00;strokeColor=#005700;fontColor=#ffffff;" parent="1" vertex="1"><mxGeometry x="653" y="1135" width="241" height="190" as="geometry"/></mxCell><mxCell id="127" value="+ handlerMappings: List" style="text;strokeColor=none;fillColor=none;align=left;verticalAlign=top;spacingLeft=4;spacingRight=4;overflow=hidden;rotatable=0;points=[[0,0.5],[1,0.5]];portConstraint=eastwest;fontFamily=Helvetica;fontSize=12;fontColor=#000000;" parent="2" vertex="1"><mxGeometry y="26" width="241" height="26" as="geometry"/></mxCell><mxCell id="128" value="+ handlerAdapters: List" style="text;strokeColor=none;fillColor=none;align=left;verticalAlign=top;spacingLeft=4;spacingRight=4;overflow=hidden;rotatable=0;points=[[0,0.5],[1,0.5]];portConstraint=eastwest;fontFamily=Helvetica;fontSize=12;fontColor=#000000;" parent="2" vertex="1"><mxGeometry y="52" width="241" height="26" as="geometry"/></mxCell><mxCell id="4" value="" style="line;strokeWidth=1;fillColor=none;align=left;verticalAlign=middle;spacingTop=-1;spacingLeft=3;spacingRight=3;rotatable=0;labelPosition=right;points=[];portConstraint=eastwest;strokeColor=inherit;" parent="2" vertex="1"><mxGeometry y="78" width="241" height="8" as="geometry"/></mxCell><mxCell id="141" value="- initHandlerMappings(appContext): void" style="text;strokeColor=none;fillColor=none;align=left;verticalAlign=top;spacingLeft=4;spacingRight=4;overflow=hidden;rotatable=0;points=[[0,0.5],[1,0.5]];portConstraint=eastwest;" parent="2" vertex="1"><mxGeometry y="86" width="241" height="26" as="geometry"/></mxCell><mxCell id="142" value="- initHandlerAdapters(appContext): void" style="text;strokeColor=none;fillColor=none;align=left;verticalAlign=top;spacingLeft=4;spacingRight=4;overflow=hidden;rotatable=0;points=[[0,0.5],[1,0.5]];portConstraint=eastwest;" parent="2" vertex="1"><mxGeometry y="112" width="241" height="26" as="geometry"/></mxCell><mxCell id="5" value="+ doDispatch(req, resp): void" style="text;strokeColor=none;fillColor=none;align=left;verticalAlign=top;spacingLeft=4;spacingRight=4;overflow=hidden;rotatable=0;points=[[0,0.5],[1,0.5]];portConstraint=eastwest;" parent="2" vertex="1"><mxGeometry y="138" width="241" height="26" as="geometry"/></mxCell><mxCell id="145" value="- renderView(req, resp, ...): void" style="text;strokeColor=none;fillColor=none;align=left;verticalAlign=top;spacingLeft=4;spacingRight=4;overflow=hidden;rotatable=0;points=[[0,0.5],[1,0.5]];portConstraint=eastwest;" parent="2" vertex="1"><mxGeometry y="164" width="241" height="26" as="geometry"/></mxCell><mxCell id="30" style="edgeStyle=none;rounded=0;orthogonalLoop=1;jettySize=auto;html=1;exitX=0.5;exitY=0;exitDx=0;exitDy=0;entryX=0.5;entryY=1;entryDx=0;entryDy=0;endArrow=block;endFill=0;" parent="1" source="6" target="10" edge="1"><mxGeometry relative="1" as="geometry"><mxPoint x="730" y="627.988" as="targetPoint"/></mxGeometry></mxCell><mxCell id="6" value="«absract»&#10;FrameworkServlet" style="swimlane;fontStyle=1;align=center;verticalAlign=top;childLayout=stackLayout;horizontal=1;startSize=40;horizontalStack=0;resizeParent=1;resizeParentMax=0;resizeLast=0;collapsible=1;marginBottom=0;fillColor=#dae8fc;strokeColor=#6c8ebf;" parent="1" vertex="1"><mxGeometry x="650" y="730" width="160" height="74" as="geometry"/></mxCell><mxCell id="8" value="" style="line;strokeWidth=1;fillColor=none;align=left;verticalAlign=middle;spacingTop=-1;spacingLeft=3;spacingRight=3;rotatable=0;labelPosition=right;points=[];portConstraint=eastwest;strokeColor=inherit;" parent="6" vertex="1"><mxGeometry y="40" width="160" height="8" as="geometry"/></mxCell><mxCell id="9" value="+ doService(req, resp): type" style="text;strokeColor=none;fillColor=none;align=left;verticalAlign=top;spacingLeft=4;spacingRight=4;overflow=hidden;rotatable=0;points=[[0,0.5],[1,0.5]];portConstraint=eastwest;" parent="6" vertex="1"><mxGeometry y="48" width="160" height="26" as="geometry"/></mxCell><mxCell id="31" style="edgeStyle=none;rounded=0;orthogonalLoop=1;jettySize=auto;html=1;exitX=0.5;exitY=0;exitDx=0;exitDy=0;entryX=0.475;entryY=1;entryDx=0;entryDy=0;entryPerimeter=0;endArrow=block;endFill=0;" parent="1" source="10" target="59" edge="1"><mxGeometry relative="1" as="geometry"/></mxCell><mxCell id="36" style="edgeStyle=none;rounded=0;orthogonalLoop=1;jettySize=auto;html=1;exitX=0;exitY=0.25;exitDx=0;exitDy=0;entryX=1;entryY=0.5;entryDx=0;entryDy=0;dashed=1;endArrow=block;endFill=0;" parent="1" source="10" target="20" edge="1"><mxGeometry relative="1" as="geometry"/></mxCell><mxCell id="10" value="«absract»&#10;HttpServletBean" style="swimlane;fontStyle=1;align=center;verticalAlign=top;childLayout=stackLayout;horizontal=1;startSize=40;horizontalStack=0;resizeParent=1;resizeParentMax=0;resizeLast=0;collapsible=1;marginBottom=0;fillColor=#dae8fc;strokeColor=#6c8ebf;" parent="1" vertex="1"><mxGeometry x="650" y="570" width="160" height="48" as="geometry"/></mxCell><mxCell id="12" value="" style="line;strokeWidth=1;fillColor=none;align=left;verticalAlign=middle;spacingTop=-1;spacingLeft=3;spacingRight=3;rotatable=0;labelPosition=right;points=[];portConstraint=eastwest;strokeColor=inherit;" parent="10" vertex="1"><mxGeometry y="40" width="160" height="8" as="geometry"/></mxCell><mxCell id="14" value="«interface»&lt;br&gt;&lt;b&gt;ApplicationContextAware&lt;/b&gt;" style="html=1;fillColor=#f8cecc;strokeColor=#b85450;" parent="1" vertex="1"><mxGeometry x="372" y="680" width="180" height="50" as="geometry"/></mxCell><mxCell id="32" style="edgeStyle=none;rounded=0;orthogonalLoop=1;jettySize=auto;html=1;exitX=0.5;exitY=0;exitDx=0;exitDy=0;endArrow=block;endFill=0;" parent="1" source="15" target="25" edge="1"><mxGeometry relative="1" as="geometry"/></mxCell><mxCell id="15" value="«absract»&#10;HttpServlet" style="swimlane;fontStyle=1;align=center;verticalAlign=top;childLayout=stackLayout;horizontal=1;startSize=40;horizontalStack=0;resizeParent=1;resizeParentMax=0;resizeLast=0;collapsible=1;marginBottom=0;fillColor=#e1d5e7;strokeColor=#9673a6;" parent="1" vertex="1"><mxGeometry x="650" y="335" width="160" height="126" as="geometry"/></mxCell><mxCell id="17" value="" style="line;strokeWidth=1;fillColor=none;align=left;verticalAlign=middle;spacingTop=-1;spacingLeft=3;spacingRight=3;rotatable=0;labelPosition=right;points=[];portConstraint=eastwest;strokeColor=inherit;" parent="15" vertex="1"><mxGeometry y="40" width="160" height="8" as="geometry"/></mxCell><mxCell id="58" value="+ doGet(req, resp): void" style="text;strokeColor=none;fillColor=none;align=left;verticalAlign=top;spacingLeft=4;spacingRight=4;overflow=hidden;rotatable=0;points=[[0,0.5],[1,0.5]];portConstraint=eastwest;" parent="15" vertex="1"><mxGeometry y="48" width="160" height="26" as="geometry"/></mxCell><mxCell id="18" value="+ doPut(req, resp): void" style="text;strokeColor=none;fillColor=none;align=left;verticalAlign=top;spacingLeft=4;spacingRight=4;overflow=hidden;rotatable=0;points=[[0,0.5],[1,0.5]];portConstraint=eastwest;" parent="15" vertex="1"><mxGeometry y="74" width="160" height="26" as="geometry"/></mxCell><mxCell id="59" value="+ doPost(req, resp): void" style="text;strokeColor=none;fillColor=none;align=left;verticalAlign=top;spacingLeft=4;spacingRight=4;overflow=hidden;rotatable=0;points=[[0,0.5],[1,0.5]];portConstraint=eastwest;" parent="15" vertex="1"><mxGeometry y="100" width="160" height="26" as="geometry"/></mxCell><mxCell id="19" value="«interface»&lt;br&gt;&lt;b&gt;EnvironmentCapable&lt;/b&gt;" style="html=1;fillColor=#f8cecc;strokeColor=#b85450;" parent="1" vertex="1"><mxGeometry x="380" y="596.5" width="180" height="35" as="geometry"/></mxCell><mxCell id="20" value="«interface»&lt;br&gt;&lt;b&gt;EnvironmentAware&lt;/b&gt;" style="html=1;fillColor=#f8cecc;strokeColor=#b85450;" parent="1" vertex="1"><mxGeometry x="380" y="559" width="180" height="31" as="geometry"/></mxCell><mxCell id="33" style="edgeStyle=none;rounded=0;orthogonalLoop=1;jettySize=auto;html=1;exitX=0.5;exitY=0;exitDx=0;exitDy=0;entryX=0.5;entryY=1;entryDx=0;entryDy=0;endArrow=block;endFill=0;dashed=1;" parent="1" source="22" target="26" edge="1"><mxGeometry relative="1" as="geometry"/></mxCell><mxCell id="34" style="edgeStyle=none;rounded=0;orthogonalLoop=1;jettySize=auto;html=1;exitX=0.75;exitY=0;exitDx=0;exitDy=0;entryX=0.5;entryY=1;entryDx=0;entryDy=0;dashed=1;endArrow=block;endFill=0;" parent="1" source="22" target="28" edge="1"><mxGeometry relative="1" as="geometry"/></mxCell><mxCell id="22" value="«absract»&#10;GenericServlet" style="swimlane;fontStyle=1;align=center;verticalAlign=top;childLayout=stackLayout;horizontal=1;startSize=40;horizontalStack=0;resizeParent=1;resizeParentMax=0;resizeLast=0;collapsible=1;marginBottom=0;fillColor=#e1d5e7;strokeColor=#9673a6;" parent="1" vertex="1"><mxGeometry x="650" y="180" width="160" height="74" as="geometry"/></mxCell><mxCell id="24" value="" style="line;strokeWidth=1;fillColor=none;align=left;verticalAlign=middle;spacingTop=-1;spacingLeft=3;spacingRight=3;rotatable=0;labelPosition=right;points=[];portConstraint=eastwest;strokeColor=inherit;" parent="22" vertex="1"><mxGeometry y="40" width="160" height="8" as="geometry"/></mxCell><mxCell id="25" value="+ service(req, resp): void" style="text;strokeColor=none;fillColor=none;align=left;verticalAlign=top;spacingLeft=4;spacingRight=4;overflow=hidden;rotatable=0;points=[[0,0.5],[1,0.5]];portConstraint=eastwest;" parent="22" vertex="1"><mxGeometry y="48" width="160" height="26" as="geometry"/></mxCell><mxCell id="26" value="«interface»&lt;br&gt;&lt;b&gt;Servlet&lt;/b&gt;" style="html=1;fillColor=#f8cecc;strokeColor=#b85450;" parent="1" vertex="1"><mxGeometry x="675" y="80" width="110" height="50" as="geometry"/></mxCell><mxCell id="61" value="returns" style="edgeStyle=none;rounded=0;orthogonalLoop=1;jettySize=auto;html=1;exitX=0;exitY=0.5;exitDx=0;exitDy=0;entryX=1;entryY=0.5;entryDx=0;entryDy=0;dashed=1;fontSize=12;endArrow=classic;endFill=1;" parent="1" source="27" target="60" edge="1"><mxGeometry relative="1" as="geometry"/></mxCell><mxCell id="27" value="«interface»&lt;br&gt;&lt;b&gt;ServletConfig&lt;/b&gt;" style="html=1;fillColor=#f8cecc;strokeColor=#b85450;" parent="1" vertex="1"><mxGeometry x="542" y="80" width="100" height="50" as="geometry"/></mxCell><mxCell id="28" value="«interface»&lt;br&gt;&lt;b&gt;Serializable&lt;/b&gt;" style="html=1;fillColor=#f8cecc;strokeColor=#b85450;" parent="1" vertex="1"><mxGeometry x="810" y="80" width="100" height="50" as="geometry"/></mxCell><mxCell id="35" style="edgeStyle=none;rounded=0;orthogonalLoop=1;jettySize=auto;html=1;exitX=0.25;exitY=0;exitDx=0;exitDy=0;entryX=0.5;entryY=1;entryDx=0;entryDy=0;dashed=1;endArrow=block;endFill=0;" parent="1" source="22" target="27" edge="1"><mxGeometry relative="1" as="geometry"/></mxCell><mxCell id="37" style="edgeStyle=none;rounded=0;orthogonalLoop=1;jettySize=auto;html=1;exitX=0;exitY=0.5;exitDx=0;exitDy=0;entryX=1;entryY=0.5;entryDx=0;entryDy=0;dashed=1;endArrow=block;endFill=0;" parent="1" source="10" target="19" edge="1"><mxGeometry relative="1" as="geometry"><mxPoint x="650" y="614" as="sourcePoint"/></mxGeometry></mxCell><mxCell id="38" style="edgeStyle=none;rounded=0;orthogonalLoop=1;jettySize=auto;html=1;exitX=0;exitY=0.5;exitDx=0;exitDy=0;dashed=1;endArrow=block;endFill=0;" parent="1" target="14" edge="1"><mxGeometry relative="1" as="geometry"><mxPoint x="650" y="743" as="sourcePoint"/></mxGeometry></mxCell><mxCell id="41" value="jakarta.*" style="text;html=1;strokeColor=none;fillColor=none;align=center;verticalAlign=middle;whiteSpace=wrap;rounded=0;dashed=1;strokeWidth=2;fontStyle=1;fontSize=14;" parent="1" vertex="1"><mxGeometry x="90" y="40" width="80" height="30" as="geometry"/></mxCell><mxCell id="42" value="org.springframework.*" style="text;html=1;strokeColor=none;fillColor=none;align=center;verticalAlign=middle;whiteSpace=wrap;rounded=0;dashed=1;strokeWidth=2;fontStyle=1;fontSize=14;" parent="1" vertex="1"><mxGeometry x="60" y="510" width="180" height="30" as="geometry"/></mxCell><mxCell id="62" value="returns" style="edgeStyle=none;rounded=0;orthogonalLoop=1;jettySize=auto;html=1;exitX=0.5;exitY=0;exitDx=0;exitDy=0;entryX=0.5;entryY=1;entryDx=0;entryDy=0;dashed=1;fontSize=12;endArrow=classic;endFill=1;" parent="1" source="44" target="60" edge="1"><mxGeometry relative="1" as="geometry"/></mxCell><mxCell id="44" value="«interface»&lt;br&gt;&lt;b&gt;ServletRequest&lt;/b&gt;" style="html=1;fillColor=#fff2cc;strokeColor=#d6b656;" parent="1" vertex="1"><mxGeometry x="360" y="170" width="110" height="50" as="geometry"/></mxCell><mxCell id="45" value="«interface»&lt;br&gt;&lt;b&gt;ServletReponse&lt;/b&gt;" style="html=1;fillColor=#fff2cc;strokeColor=#d6b656;" parent="1" vertex="1"><mxGeometry x="520" y="230" width="110" height="50" as="geometry"/></mxCell><mxCell id="49" style="edgeStyle=none;rounded=0;orthogonalLoop=1;jettySize=auto;html=1;entryX=0.5;entryY=1;entryDx=0;entryDy=0;fontSize=14;endArrow=block;endFill=0;exitX=0.5;exitY=0;exitDx=0;exitDy=0;" parent="1" source="75" target="44" edge="1"><mxGeometry relative="1" as="geometry"/></mxCell><mxCell id="55" value="extends" style="edgeLabel;html=1;align=center;verticalAlign=middle;resizable=0;points=[];fontSize=12;" parent="49" vertex="1" connectable="0"><mxGeometry x="-0.037" y="-1" relative="1" as="geometry"><mxPoint as="offset"/></mxGeometry></mxCell><mxCell id="48" style="edgeStyle=none;rounded=0;orthogonalLoop=1;jettySize=auto;html=1;entryX=0.5;entryY=1;entryDx=0;entryDy=0;fontSize=14;endArrow=block;endFill=0;" parent="1" source="47" target="45" edge="1"><mxGeometry relative="1" as="geometry"/></mxCell><mxCell id="47" value="«interface»&lt;br&gt;&lt;b&gt;HttpServletReponse&lt;/b&gt;" style="html=1;fillColor=#fff2cc;strokeColor=#d6b656;" parent="1" vertex="1"><mxGeometry x="515" y="330" width="120" height="50" as="geometry"/></mxCell><mxCell id="50" value="&lt;font style=&quot;font-size: 12px;&quot;&gt;uses&lt;/font&gt;" style="edgeStyle=none;rounded=0;orthogonalLoop=1;jettySize=auto;html=1;exitX=0;exitY=0.25;exitDx=0;exitDy=0;entryX=1;entryY=0.25;entryDx=0;entryDy=0;fontSize=14;endArrow=classic;endFill=1;dashed=1;" parent="1" source="22" target="44" edge="1"><mxGeometry relative="1" as="geometry"/></mxCell><mxCell id="51" value="uses" style="edgeStyle=none;rounded=0;orthogonalLoop=1;jettySize=auto;html=1;exitX=0;exitY=0.5;exitDx=0;exitDy=0;entryX=0.5;entryY=0;entryDx=0;entryDy=0;dashed=1;fontSize=12;endArrow=classic;endFill=1;" parent="1" target="45" edge="1"><mxGeometry relative="1" as="geometry"><mxPoint x="650" y="233" as="sourcePoint"/><Array as="points"><mxPoint x="610" y="220"/></Array></mxGeometry></mxCell><mxCell id="52" value="uses" style="edgeStyle=none;rounded=0;orthogonalLoop=1;jettySize=auto;html=1;exitX=0.25;exitY=0;exitDx=0;exitDy=0;entryX=0.75;entryY=0;entryDx=0;entryDy=0;dashed=1;fontSize=12;endArrow=classic;endFill=1;" parent="1" source="15" target="47" edge="1"><mxGeometry relative="1" as="geometry"><Array as="points"><mxPoint x="660" y="320"/></Array></mxGeometry></mxCell><mxCell id="53" style="edgeStyle=none;rounded=0;orthogonalLoop=1;jettySize=auto;html=1;exitX=0;exitY=0.5;exitDx=0;exitDy=0;entryX=1;entryY=0.5;entryDx=0;entryDy=0;dashed=1;fontSize=12;endArrow=classic;endFill=1;" parent="1" source="18" target="77" edge="1"><mxGeometry relative="1" as="geometry"><Array as="points"><mxPoint x="570" y="420"/></Array></mxGeometry></mxCell><mxCell id="54" value="uses" style="edgeLabel;html=1;align=center;verticalAlign=middle;resizable=0;points=[];fontSize=12;" parent="53" vertex="1" connectable="0"><mxGeometry x="0.3517" relative="1" as="geometry"><mxPoint as="offset"/></mxGeometry></mxCell><mxCell id="64" style="edgeStyle=none;rounded=0;orthogonalLoop=1;jettySize=auto;html=1;exitX=0;exitY=0.5;exitDx=0;exitDy=0;entryX=1;entryY=0.5;entryDx=0;entryDy=0;dashed=1;fontSize=12;endArrow=classic;endFill=1;" parent="1" source="60" target="63" edge="1"><mxGeometry relative="1" as="geometry"/></mxCell><mxCell id="69" value="*" style="edgeLabel;html=1;align=center;verticalAlign=middle;resizable=0;points=[];fontSize=14;" parent="64" vertex="1" connectable="0"><mxGeometry x="-0.1154" y="-1" relative="1" as="geometry"><mxPoint x="-14" y="-1" as="offset"/></mxGeometry></mxCell><mxCell id="68" style="edgeStyle=none;rounded=0;orthogonalLoop=1;jettySize=auto;html=1;exitX=0.25;exitY=1;exitDx=0;exitDy=0;entryX=0.5;entryY=0;entryDx=0;entryDy=0;dashed=1;fontSize=12;endArrow=classic;endFill=1;" parent="1" source="60" target="65" edge="1"><mxGeometry relative="1" as="geometry"/></mxCell><mxCell id="70" value="uses" style="edgeLabel;html=1;align=center;verticalAlign=middle;resizable=0;points=[];fontSize=12;" parent="68" vertex="1" connectable="0"><mxGeometry x="-0.1017" y="2" relative="1" as="geometry"><mxPoint y="-1" as="offset"/></mxGeometry></mxCell><mxCell id="71" value="*" style="edgeLabel;html=1;align=center;verticalAlign=middle;resizable=0;points=[];fontSize=15;" parent="68" vertex="1" connectable="0"><mxGeometry x="0.7498" y="-1" relative="1" as="geometry"><mxPoint as="offset"/></mxGeometry></mxCell><mxCell id="60" value="«interface»&lt;br&gt;&lt;b&gt;ServletContext&lt;/b&gt;" style="html=1;fillColor=#60a917;strokeColor=#2D7600;fontColor=#ffffff;" parent="1" vertex="1"><mxGeometry x="372" y="82" width="100" height="50" as="geometry"/></mxCell><mxCell id="63" value="«interface»&lt;br&gt;&lt;b&gt;EventListener&lt;/b&gt;" style="html=1;fillColor=#f8cecc;strokeColor=#b85450;" parent="1" vertex="1"><mxGeometry x="230" y="82" width="90" height="50" as="geometry"/></mxCell><mxCell id="65" value="«interface»&#10;Filter" style="swimlane;fontStyle=1;align=center;verticalAlign=top;childLayout=stackLayout;horizontal=1;startSize=40;horizontalStack=0;resizeParent=1;resizeParentMax=0;resizeLast=0;collapsible=1;marginBottom=0;fillColor=#f8cecc;strokeColor=#b85450;" parent="1" vertex="1"><mxGeometry x="105" y="180" width="190" height="74" as="geometry"/></mxCell><mxCell id="66" value="" style="line;strokeWidth=1;fillColor=none;align=left;verticalAlign=middle;spacingTop=-1;spacingLeft=3;spacingRight=3;rotatable=0;labelPosition=right;points=[];portConstraint=eastwest;strokeColor=inherit;" parent="65" vertex="1"><mxGeometry y="40" width="190" height="8" as="geometry"/></mxCell><mxCell id="67" value="+ doFilter(req, resp, chain): void" style="text;strokeColor=none;fillColor=none;align=left;verticalAlign=top;spacingLeft=4;spacingRight=4;overflow=hidden;rotatable=0;points=[[0,0.5],[1,0.5]];portConstraint=eastwest;" parent="65" vertex="1"><mxGeometry y="48" width="190" height="26" as="geometry"/></mxCell><mxCell id="81" style="edgeStyle=none;rounded=0;orthogonalLoop=1;jettySize=auto;html=1;exitX=0.75;exitY=0;exitDx=0;exitDy=0;dashed=1;fontSize=12;endArrow=classic;endFill=1;" parent="1" source="73" target="60" edge="1"><mxGeometry relative="1" as="geometry"><Array as="points"><mxPoint x="330" y="180"/></Array></mxGeometry></mxCell><mxCell id="82" value="returns" style="edgeLabel;html=1;align=center;verticalAlign=middle;resizable=0;points=[];fontSize=12;" parent="81" vertex="1" connectable="0"><mxGeometry x="-0.0758" relative="1" as="geometry"><mxPoint as="offset"/></mxGeometry></mxCell><mxCell id="73" value="«interface»&lt;br&gt;&lt;b&gt;HttpSession&lt;/b&gt;" style="html=1;fillColor=#fff2cc;strokeColor=#d6b656;" parent="1" vertex="1"><mxGeometry x="215" y="270" width="120" height="50" as="geometry"/></mxCell><mxCell id="80" style="edgeStyle=none;rounded=0;orthogonalLoop=1;jettySize=auto;html=1;exitX=0.25;exitY=0;exitDx=0;exitDy=0;entryX=1;entryY=0.5;entryDx=0;entryDy=0;dashed=1;fontSize=12;endArrow=classic;endFill=1;" parent="1" source="75" target="73" edge="1"><mxGeometry relative="1" as="geometry"/></mxCell><mxCell id="83" value="returns" style="edgeLabel;html=1;align=center;verticalAlign=middle;resizable=0;points=[];fontSize=12;" parent="80" vertex="1" connectable="0"><mxGeometry x="-0.092" relative="1" as="geometry"><mxPoint x="13" y="3" as="offset"/></mxGeometry></mxCell><mxCell id="75" value="«interface»&#10;HttpServletRequest" style="swimlane;fontStyle=1;align=center;verticalAlign=top;childLayout=stackLayout;horizontal=1;startSize=40;horizontalStack=0;resizeParent=1;resizeParentMax=0;resizeLast=0;collapsible=1;marginBottom=0;fillColor=#fff2cc;strokeColor=#d6b656;" parent="1" vertex="1"><mxGeometry x="310" y="335" width="190" height="126" as="geometry"/></mxCell><mxCell id="76" value="" style="line;strokeWidth=1;fillColor=none;align=left;verticalAlign=middle;spacingTop=-1;spacingLeft=3;spacingRight=3;rotatable=0;labelPosition=right;points=[];portConstraint=eastwest;strokeColor=inherit;" parent="75" vertex="1"><mxGeometry y="40" width="190" height="8" as="geometry"/></mxCell><mxCell id="78" value="+ login(user, pwd): void" style="text;strokeColor=none;fillColor=none;align=left;verticalAlign=top;spacingLeft=4;spacingRight=4;overflow=hidden;rotatable=0;points=[[0,0.5],[1,0.5]];portConstraint=eastwest;" parent="75" vertex="1"><mxGeometry y="48" width="190" height="26" as="geometry"/></mxCell><mxCell id="77" value="+ authenticate(resp): void" style="text;strokeColor=none;fillColor=none;align=left;verticalAlign=top;spacingLeft=4;spacingRight=4;overflow=hidden;rotatable=0;points=[[0,0.5],[1,0.5]];portConstraint=eastwest;" parent="75" vertex="1"><mxGeometry y="74" width="190" height="26" as="geometry"/></mxCell><mxCell id="79" value="+ logout(): void" style="text;strokeColor=none;fillColor=none;align=left;verticalAlign=top;spacingLeft=4;spacingRight=4;overflow=hidden;rotatable=0;points=[[0,0.5],[1,0.5]];portConstraint=eastwest;" parent="75" vertex="1"><mxGeometry y="100" width="190" height="26" as="geometry"/></mxCell><mxCell id="84" value="«interface»&lt;br&gt;&lt;b&gt;HttpServletReponse&lt;/b&gt;" style="html=1;fillColor=#fff2cc;strokeColor=#d6b656;" parent="1" vertex="1"><mxGeometry x="410" y="800" width="142" height="50" as="geometry"/></mxCell><mxCell id="85" value="«interface»&#10;HttpServletRequest" style="swimlane;fontStyle=1;align=center;verticalAlign=top;childLayout=stackLayout;horizontal=1;startSize=40;horizontalStack=0;resizeParent=1;resizeParentMax=0;resizeLast=0;collapsible=1;marginBottom=0;fillColor=#fff2cc;strokeColor=#d6b656;" parent="1" vertex="1"><mxGeometry x="410" y="740" width="142" height="48" as="geometry"/></mxCell><mxCell id="86" value="" style="line;strokeWidth=1;fillColor=none;align=left;verticalAlign=middle;spacingTop=-1;spacingLeft=3;spacingRight=3;rotatable=0;labelPosition=right;points=[];portConstraint=eastwest;strokeColor=inherit;" parent="85" vertex="1"><mxGeometry y="40" width="142" height="8" as="geometry"/></mxCell><mxCell id="90" style="edgeStyle=none;rounded=0;orthogonalLoop=1;jettySize=auto;html=1;exitX=0;exitY=0.5;exitDx=0;exitDy=0;entryX=1;entryY=0.5;entryDx=0;entryDy=0;dashed=1;fontSize=15;endArrow=classic;endFill=1;" parent="1" source="9" target="85" edge="1"><mxGeometry relative="1" as="geometry"/></mxCell><mxCell id="92" value="&lt;font style=&quot;font-size: 12px;&quot;&gt;uses&lt;/font&gt;" style="edgeLabel;html=1;align=center;verticalAlign=middle;resizable=0;points=[];fontSize=15;" parent="90" vertex="1" connectable="0"><mxGeometry x="0.0595" relative="1" as="geometry"><mxPoint as="offset"/></mxGeometry></mxCell><mxCell id="91" style="edgeStyle=none;rounded=0;orthogonalLoop=1;jettySize=auto;html=1;exitX=0;exitY=0.5;exitDx=0;exitDy=0;entryX=1;entryY=0.5;entryDx=0;entryDy=0;dashed=1;fontSize=15;endArrow=classic;endFill=1;" parent="1" source="9" target="84" edge="1"><mxGeometry relative="1" as="geometry"/></mxCell><mxCell id="93" value="uses" style="edgeLabel;html=1;align=center;verticalAlign=middle;resizable=0;points=[];fontSize=12;" parent="91" vertex="1" connectable="0"><mxGeometry x="-0.1093" y="2" relative="1" as="geometry"><mxPoint as="offset"/></mxGeometry></mxCell><mxCell id="94" value="HandlerExecutionChain (HEC)" style="swimlane;fontStyle=1;align=center;verticalAlign=top;childLayout=stackLayout;horizontal=1;startSize=26;horizontalStack=0;resizeParent=1;resizeParentMax=0;resizeLast=0;collapsible=1;marginBottom=0;fillColor=#ffe6cc;strokeColor=#d79b00;" parent="1" vertex="1"><mxGeometry x="95" y="955" width="215" height="86" as="geometry"/></mxCell><mxCell id="96" value="" style="line;strokeWidth=1;fillColor=none;align=left;verticalAlign=middle;spacingTop=-1;spacingLeft=3;spacingRight=3;rotatable=0;labelPosition=right;points=[];portConstraint=eastwest;strokeColor=inherit;" parent="94" vertex="1"><mxGeometry y="26" width="215" height="8" as="geometry"/></mxCell><mxCell id="97" value="+ getInterceptors(): List" style="text;strokeColor=none;fillColor=none;align=left;verticalAlign=top;spacingLeft=4;spacingRight=4;overflow=hidden;rotatable=0;points=[[0,0.5],[1,0.5]];portConstraint=eastwest;" parent="94" vertex="1"><mxGeometry y="34" width="215" height="26" as="geometry"/></mxCell><mxCell id="119" value="+ getHandler(): Object" style="text;strokeColor=none;fillColor=none;align=left;verticalAlign=top;spacingLeft=4;spacingRight=4;overflow=hidden;rotatable=0;points=[[0,0.5],[1,0.5]];portConstraint=eastwest;" parent="94" vertex="1"><mxGeometry y="60" width="215" height="26" as="geometry"/></mxCell><mxCell id="98" value="HandlerAdapter" style="swimlane;fontStyle=1;align=center;verticalAlign=top;childLayout=stackLayout;horizontal=1;startSize=26;horizontalStack=0;resizeParent=1;resizeParentMax=0;resizeLast=0;collapsible=1;marginBottom=0;fillColor=#ffe6cc;strokeColor=#d79b00;" parent="1" vertex="1"><mxGeometry x="347" y="1180" width="230" height="86" as="geometry"/></mxCell><mxCell id="99" value="" style="line;strokeWidth=1;fillColor=none;align=left;verticalAlign=middle;spacingTop=-1;spacingLeft=3;spacingRight=3;rotatable=0;labelPosition=right;points=[];portConstraint=eastwest;strokeColor=inherit;" parent="98" vertex="1"><mxGeometry y="26" width="230" height="8" as="geometry"/></mxCell><mxCell id="100" value="+ supports(handler: Object): bool" style="text;strokeColor=none;fillColor=none;align=left;verticalAlign=top;spacingLeft=4;spacingRight=4;overflow=hidden;rotatable=0;points=[[0,0.5],[1,0.5]];portConstraint=eastwest;" parent="98" vertex="1"><mxGeometry y="34" width="230" height="26" as="geometry"/></mxCell><mxCell id="144" value="+ handle(req, rep, handler): ModelView" style="text;strokeColor=none;fillColor=none;align=left;verticalAlign=top;spacingLeft=4;spacingRight=4;overflow=hidden;rotatable=0;points=[[0,0.5],[1,0.5]];portConstraint=eastwest;" parent="98" vertex="1"><mxGeometry y="60" width="230" height="26" as="geometry"/></mxCell><mxCell id="103" style="rounded=0;orthogonalLoop=1;jettySize=auto;html=1;exitX=0;exitY=0.5;exitDx=0;exitDy=0;entryX=1;entryY=0.25;entryDx=0;entryDy=0;dashed=1;" parent="1" source="128" target="98" edge="1"><mxGeometry relative="1" as="geometry"><mxPoint x="649" y="1025" as="sourcePoint"/><mxPoint x="420" y="969" as="targetPoint"/></mxGeometry></mxCell><mxCell id="104" value="&lt;b&gt;&lt;font style=&quot;font-size: 14px;&quot;&gt;*&lt;/font&gt;&lt;/b&gt;" style="edgeLabel;html=1;align=center;verticalAlign=middle;resizable=0;points=[];" parent="103" vertex="1" connectable="0"><mxGeometry x="0.8127" y="-2" relative="1" as="geometry"><mxPoint as="offset"/></mxGeometry></mxCell><mxCell id="124" value="returns" style="edgeLabel;html=1;align=center;verticalAlign=middle;resizable=0;points=[];fontSize=12;fontColor=#000000;" parent="103" vertex="1" connectable="0"><mxGeometry x="-0.3418" y="1" relative="1" as="geometry"><mxPoint as="offset"/></mxGeometry></mxCell><mxCell id="107" value="«interface»&#10;HandlerInterceptor" style="swimlane;fontStyle=1;align=center;verticalAlign=top;childLayout=stackLayout;horizontal=1;startSize=40;horizontalStack=0;resizeParent=1;resizeParentMax=0;resizeLast=0;collapsible=1;marginBottom=0;fillColor=#ffe6cc;strokeColor=#d79b00;" parent="1" vertex="1"><mxGeometry x="330" y="883" width="280" height="126" as="geometry"/></mxCell><mxCell id="108" value="" style="line;strokeWidth=1;fillColor=none;align=left;verticalAlign=middle;spacingTop=-1;spacingLeft=3;spacingRight=3;rotatable=0;labelPosition=right;points=[];portConstraint=eastwest;strokeColor=inherit;" parent="107" vertex="1"><mxGeometry y="40" width="280" height="8" as="geometry"/></mxCell><mxCell id="109" value="+ preHandle(req, resp, handler): void" style="text;strokeColor=none;fillColor=none;align=left;verticalAlign=top;spacingLeft=4;spacingRight=4;overflow=hidden;rotatable=0;points=[[0,0.5],[1,0.5]];portConstraint=eastwest;" parent="107" vertex="1"><mxGeometry y="48" width="280" height="26" as="geometry"/></mxCell><mxCell id="121" value="+ postHandle(req, resp, handler, modelView): void" style="text;strokeColor=none;fillColor=none;align=left;verticalAlign=top;spacingLeft=4;spacingRight=4;overflow=hidden;rotatable=0;points=[[0,0.5],[1,0.5]];portConstraint=eastwest;" parent="107" vertex="1"><mxGeometry y="74" width="280" height="26" as="geometry"/></mxCell><mxCell id="122" value="+ afterCompletion(req, resp, handler, excep): void" style="text;strokeColor=none;fillColor=none;align=left;verticalAlign=top;spacingLeft=4;spacingRight=4;overflow=hidden;rotatable=0;points=[[0,0.5],[1,0.5]];portConstraint=eastwest;" parent="107" vertex="1"><mxGeometry y="100" width="280" height="26" as="geometry"/></mxCell><mxCell id="111" value="«interface»&#10;HandlerMapping" style="swimlane;fontStyle=1;align=center;verticalAlign=top;childLayout=stackLayout;horizontal=1;startSize=40;horizontalStack=0;resizeParent=1;resizeParentMax=0;resizeLast=0;collapsible=1;marginBottom=0;fillColor=#ffe6cc;strokeColor=#d79b00;" parent="1" vertex="1"><mxGeometry x="125" y="1084" width="180" height="74" as="geometry"/></mxCell><mxCell id="112" value="" style="line;strokeWidth=1;fillColor=none;align=left;verticalAlign=middle;spacingTop=-1;spacingLeft=3;spacingRight=3;rotatable=0;labelPosition=right;points=[];portConstraint=eastwest;strokeColor=inherit;" parent="111" vertex="1"><mxGeometry y="40" width="180" height="8" as="geometry"/></mxCell><mxCell id="113" value="+ getHandler(): HEC" style="text;strokeColor=none;fillColor=none;align=left;verticalAlign=top;spacingLeft=4;spacingRight=4;overflow=hidden;rotatable=0;points=[[0,0.5],[1,0.5]];portConstraint=eastwest;" parent="111" vertex="1"><mxGeometry y="48" width="180" height="26" as="geometry"/></mxCell><mxCell id="114" value="returns" style="rounded=0;orthogonalLoop=1;jettySize=auto;html=1;exitX=0;exitY=0.5;exitDx=0;exitDy=0;entryX=0.535;entryY=0.962;entryDx=0;entryDy=0;fontSize=12;dashed=1;entryPerimeter=0;edgeStyle=orthogonalEdgeStyle;" parent="1" source="113" target="119" edge="1"><mxGeometry relative="1" as="geometry"><mxPoint x="205" y="800" as="sourcePoint"/><mxPoint x="225" y="893" as="targetPoint"/><Array as="points"><mxPoint x="105" y="1145"/><mxPoint x="105" y="1070"/><mxPoint x="210" y="1070"/></Array></mxGeometry></mxCell><mxCell id="117" style="edgeStyle=orthogonalEdgeStyle;rounded=0;orthogonalLoop=1;jettySize=auto;html=1;exitX=0;exitY=0.5;exitDx=0;exitDy=0;exitPerimeter=0;entryX=0.75;entryY=0;entryDx=0;entryDy=0;dashed=1;fontSize=12;fontColor=#000000;endArrow=none;endFill=0;" parent="1" source="116" target="111" edge="1"><mxGeometry relative="1" as="geometry"/></mxCell><mxCell id="116" value="&lt;font color=&quot;#000000&quot; style=&quot;font-size: 12px;&quot;&gt;Interface to be implemented by objects that define a &lt;b&gt;mapping&lt;/b&gt; between * &lt;b&gt;requests&lt;/b&gt; and &lt;b&gt;handler&lt;/b&gt; objects.&lt;/font&gt;" style="shape=note;strokeWidth=2;fontSize=14;size=20;whiteSpace=wrap;html=1;fillColor=#f5f5f5;strokeColor=#666666;fontColor=#333333;" parent="1" vertex="1"><mxGeometry x="400" y="1025" width="210" height="80" as="geometry"/></mxCell><mxCell id="120" value="returns" style="edgeStyle=orthogonalEdgeStyle;rounded=0;orthogonalLoop=1;jettySize=auto;html=1;exitX=0;exitY=0.5;exitDx=0;exitDy=0;entryX=0.5;entryY=0;entryDx=0;entryDy=0;fontSize=12;dashed=1;" parent="1" source="97" target="107" edge="1"><mxGeometry relative="1" as="geometry"><mxPoint x="260" y="1100" as="sourcePoint"/><mxPoint x="170" y="1107" as="targetPoint"/></mxGeometry></mxCell><mxCell id="126" style="rounded=0;orthogonalLoop=1;jettySize=auto;html=1;exitX=0.5;exitY=1;exitDx=0;exitDy=0;exitPerimeter=0;entryX=1;entryY=0.5;entryDx=0;entryDy=0;dashed=1;fontSize=12;fontColor=#000000;endArrow=none;endFill=0;" parent="1" source="125" target="5" edge="1"><mxGeometry relative="1" as="geometry"/></mxCell><mxCell id="125" value="&lt;div style=&quot;&quot;&gt;&lt;span style=&quot;font-size: 12px; color: rgb(0, 0, 0); background-color: initial;&quot;&gt;&lt;b&gt;&lt;u&gt;doDispatch() Macro Steps :&lt;/u&gt;&lt;/b&gt;&lt;/span&gt;&lt;/div&gt;&lt;div style=&quot;&quot;&gt;&lt;span style=&quot;font-size: 12px; color: rgb(0, 0, 0); background-color: initial;&quot;&gt;&lt;b&gt;&lt;u&gt;&lt;br&gt;&lt;/u&gt;&lt;/b&gt;&lt;/span&gt;&lt;/div&gt;&lt;div style=&quot;font-size: 12px;&quot;&gt;&lt;span style=&quot;background-color: initial; color: rgb(0, 0, 0); font-family: &amp;quot;Courier New&amp;quot;;&quot;&gt;var hm = getHandlerMappingBy(req);&lt;/span&gt;&lt;br&gt;&lt;/div&gt;&lt;div style=&quot;font-size: 12px;&quot;&gt;&lt;font style=&quot;font-size: 12px;&quot; face=&quot;Courier New&quot;&gt;&lt;font color=&quot;#000000&quot;&gt;var hec = hm.getHandler();&lt;/font&gt;&lt;/font&gt;&lt;/div&gt;&lt;div style=&quot;font-size: 12px;&quot;&gt;&lt;font style=&quot;font-size: 12px;&quot; face=&quot;Courier New&quot;&gt;&lt;font color=&quot;#000000&quot;&gt;var handler =&amp;nbsp;&lt;/font&gt;&lt;/font&gt;&lt;span style=&quot;color: rgb(0, 0, 0); font-family: &amp;quot;Courier New&amp;quot;;&quot;&gt;hec.getHandler();&lt;/span&gt;&lt;font style=&quot;font-size: 12px;&quot; face=&quot;Courier New&quot;&gt;&lt;font color=&quot;#000000&quot;&gt;&lt;br&gt;&lt;/font&gt;&lt;span style=&quot;color: rgb(0, 0, 0); background-color: initial;&quot;&gt;var ha = getHandlerAdapterBy(handler);&lt;/span&gt;&lt;/font&gt;&lt;br&gt;&lt;/div&gt;&lt;div style=&quot;font-size: 12px;&quot;&gt;&lt;font style=&quot;font-size: 12px;&quot; face=&quot;Courier New&quot;&gt;&lt;span style=&quot;color: rgb(0, 0, 0); background-color: initial;&quot;&gt;&lt;br&gt;&lt;/span&gt;&lt;/font&gt;&lt;/div&gt;&lt;div style=&quot;font-size: 12px;&quot;&gt;&lt;font style=&quot;font-size: 12px;&quot; face=&quot;Courier New&quot;&gt;&lt;span style=&quot;color: rgb(0, 0, 0); background-color: initial;&quot;&gt;hec.preInterceptors(req, resp);&lt;/span&gt;&lt;/font&gt;&lt;/div&gt;&lt;div style=&quot;font-size: 12px;&quot;&gt;&lt;font style=&quot;font-size: 12px;&quot; face=&quot;Courier New&quot;&gt;&lt;span style=&quot;color: rgb(0, 0, 0); background-color: initial;&quot;&gt;var mv = ha.handle(req, resp, handler);&amp;nbsp;&lt;/span&gt;&lt;/font&gt;&lt;/div&gt;&lt;div style=&quot;font-size: 12px;&quot;&gt;&lt;span style=&quot;color: rgb(0, 0, 0); font-family: &amp;quot;Courier New&amp;quot;;&quot;&gt;hec.postInterceptors(req, resp, mv);&lt;/span&gt;&lt;font style=&quot;font-size: 12px;&quot; face=&quot;Courier New&quot;&gt;&lt;span style=&quot;color: rgb(0, 0, 0); background-color: initial;&quot;&gt;&lt;br&gt;&lt;/span&gt;&lt;/font&gt;&lt;/div&gt;&lt;div style=&quot;&quot;&gt;&lt;font color=&quot;#000000&quot;&gt;&lt;span style=&quot;font-size: 12px;&quot;&gt;&lt;font face=&quot;Courier New&quot;&gt;renderView(req, resp, hec, mv, excep);&lt;/font&gt;&lt;i style=&quot;&quot;&gt;&lt;font face=&quot;Lucida Console&quot;&gt;//HTML, JSON, ...&lt;/font&gt;&lt;/i&gt;&lt;/span&gt;&lt;/font&gt;&lt;br&gt;&lt;/div&gt;&lt;div style=&quot;font-size: 12px;&quot;&gt;&lt;span style=&quot;color: rgb(0, 0, 0); font-family: &amp;quot;Courier New&amp;quot;;&quot;&gt;&lt;br&gt;&lt;/span&gt;&lt;/div&gt;&lt;div style=&quot;font-size: 12px;&quot;&gt;&lt;span style=&quot;color: rgb(0, 0, 0);&quot;&gt;hm : handler mapping&lt;/span&gt;&lt;/div&gt;&lt;div style=&quot;font-size: 12px;&quot;&gt;&lt;span style=&quot;color: rgb(0, 0, 0);&quot;&gt;hec : handler execution chain&lt;/span&gt;&lt;/div&gt;&lt;div style=&quot;font-size: 12px;&quot;&gt;&lt;span style=&quot;color: rgb(0, 0, 0);&quot;&gt;ha : handler adapter&lt;/span&gt;&lt;/div&gt;&lt;div style=&quot;font-size: 12px;&quot;&gt;&lt;span style=&quot;color: rgb(0, 0, 0);&quot;&gt;mv : model and view&lt;/span&gt;&lt;/div&gt;" style="shape=note;strokeWidth=2;fontSize=14;size=20;whiteSpace=wrap;html=1;fillColor=#f5f5f5;strokeColor=#666666;fontColor=#333333;align=left;verticalAlign=top;" parent="1" vertex="1"><mxGeometry x="800" y="840" width="370" height="268" as="geometry"/></mxCell><mxCell id="131" value="ModelAndView" style="swimlane;fontStyle=1;align=center;verticalAlign=top;childLayout=stackLayout;horizontal=1;startSize=26;horizontalStack=0;resizeParent=1;resizeParentMax=0;resizeLast=0;collapsible=1;marginBottom=0;fillColor=#ffe6cc;strokeColor=#d79b00;" parent="1" vertex="1"><mxGeometry x="1002" y="1160" width="148" height="34" as="geometry"/></mxCell><mxCell id="132" value="" style="line;strokeWidth=1;fillColor=none;align=left;verticalAlign=middle;spacingTop=-1;spacingLeft=3;spacingRight=3;rotatable=0;labelPosition=right;points=[];portConstraint=eastwest;strokeColor=inherit;" parent="131" vertex="1"><mxGeometry y="26" width="148" height="8" as="geometry"/></mxCell><mxCell id="134" style="rounded=0;orthogonalLoop=1;jettySize=auto;html=1;entryX=0;entryY=0.5;entryDx=0;entryDy=0;dashed=1;fontFamily=Helvetica;fontSize=12;fontColor=#000000;endArrow=classic;endFill=1;exitX=1;exitY=0.5;exitDx=0;exitDy=0;" parent="1" source="5" target="131" edge="1"><mxGeometry relative="1" as="geometry"><mxPoint x="890" y="1280" as="sourcePoint"/></mxGeometry></mxCell><mxCell id="135" value="uses" style="edgeLabel;html=1;align=center;verticalAlign=middle;resizable=0;points=[];fontSize=12;fontFamily=Helvetica;fontColor=#000000;" parent="134" vertex="1" connectable="0"><mxGeometry x="0.1606" y="1" relative="1" as="geometry"><mxPoint as="offset"/></mxGeometry></mxCell><mxCell id="136" value="«interface»&#10;View" style="swimlane;fontStyle=1;align=center;verticalAlign=top;childLayout=stackLayout;horizontal=1;startSize=40;horizontalStack=0;resizeParent=1;resizeParentMax=0;resizeLast=0;collapsible=1;marginBottom=0;fillColor=#ffe6cc;strokeColor=#d79b00;" parent="1" vertex="1"><mxGeometry x="970" y="1248" width="200" height="74" as="geometry"/></mxCell><mxCell id="137" value="" style="line;strokeWidth=1;fillColor=none;align=left;verticalAlign=middle;spacingTop=-1;spacingLeft=3;spacingRight=3;rotatable=0;labelPosition=right;points=[];portConstraint=eastwest;strokeColor=inherit;" parent="136" vertex="1"><mxGeometry y="40" width="200" height="8" as="geometry"/></mxCell><mxCell id="138" value="+ render(model, req, resp): void" style="text;strokeColor=none;fillColor=none;align=left;verticalAlign=top;spacingLeft=4;spacingRight=4;overflow=hidden;rotatable=0;points=[[0,0.5],[1,0.5]];portConstraint=eastwest;" parent="136" vertex="1"><mxGeometry y="48" width="200" height="26" as="geometry"/></mxCell><mxCell id="139" style="rounded=0;orthogonalLoop=1;jettySize=auto;html=1;exitX=0.5;exitY=1;exitDx=0;exitDy=0;entryX=0.5;entryY=0;entryDx=0;entryDy=0;dashed=1;fontFamily=Helvetica;fontSize=12;fontColor=#000000;endArrow=classic;endFill=1;" parent="1" source="131" target="136" edge="1"><mxGeometry relative="1" as="geometry"/></mxCell><mxCell id="140" value="uses" style="edgeLabel;html=1;align=center;verticalAlign=middle;resizable=0;points=[];fontSize=12;fontFamily=Helvetica;fontColor=#000000;" parent="139" vertex="1" connectable="0"><mxGeometry x="0.157" y="-2" relative="1" as="geometry"><mxPoint as="offset"/></mxGeometry></mxCell><mxCell id="147" value="REST Controllers" style="text;html=1;strokeColor=none;fillColor=none;align=left;verticalAlign=middle;whiteSpace=wrap;rounded=0;dashed=1;strokeWidth=2;fontStyle=1;fontSize=14;fontColor=#CC0066;" parent="1" vertex="1"><mxGeometry x="69" y="1406" width="131" height="30" as="geometry"/></mxCell><mxCell id="156" style="rounded=0;orthogonalLoop=1;jettySize=auto;html=1;exitX=0.5;exitY=0;exitDx=0;exitDy=0;entryX=0.5;entryY=1;entryDx=0;entryDy=0;fontFamily=Lucida Console;fontSize=12;fontColor=#CC0066;endArrow=block;endFill=0;" parent="1" source="148" target="163" edge="1"><mxGeometry relative="1" as="geometry"/></mxCell><mxCell id="148" value="RequestMappingHandlerMapping" style="swimlane;fontStyle=1;align=center;verticalAlign=top;childLayout=stackLayout;horizontal=1;startSize=26;horizontalStack=0;resizeParent=1;resizeParentMax=0;resizeLast=0;collapsible=1;marginBottom=0;fillColor=#ffe6cc;strokeColor=#d79b00;" parent="1" vertex="1"><mxGeometry x="116.5" y="1538" width="230" height="86" as="geometry"/></mxCell><mxCell id="149" value="" style="line;strokeWidth=1;fillColor=none;align=left;verticalAlign=middle;spacingTop=-1;spacingLeft=3;spacingRight=3;rotatable=0;labelPosition=right;points=[];portConstraint=eastwest;strokeColor=inherit;" parent="148" vertex="1"><mxGeometry y="26" width="230" height="8" as="geometry"/></mxCell><mxCell id="150" value="+ supports(handler: Object): bool" style="text;strokeColor=none;fillColor=none;align=left;verticalAlign=top;spacingLeft=4;spacingRight=4;overflow=hidden;rotatable=0;points=[[0,0.5],[1,0.5]];portConstraint=eastwest;" parent="148" vertex="1"><mxGeometry y="34" width="230" height="26" as="geometry"/></mxCell><mxCell id="151" value="+ handle(req, rep, handler): ModelView" style="text;strokeColor=none;fillColor=none;align=left;verticalAlign=top;spacingLeft=4;spacingRight=4;overflow=hidden;rotatable=0;points=[[0,0.5],[1,0.5]];portConstraint=eastwest;" parent="148" vertex="1"><mxGeometry y="60" width="230" height="26" as="geometry"/></mxCell><mxCell id="152" value="RequestMappingHandlerAdapter" style="swimlane;fontStyle=1;align=center;verticalAlign=top;childLayout=stackLayout;horizontal=1;startSize=26;horizontalStack=0;resizeParent=1;resizeParentMax=0;resizeLast=0;collapsible=1;marginBottom=0;fillColor=#ffe6cc;strokeColor=#d79b00;" parent="1" vertex="1"><mxGeometry x="500" y="1520" width="230" height="86" as="geometry"/></mxCell><mxCell id="153" value="" style="line;strokeWidth=1;fillColor=none;align=left;verticalAlign=middle;spacingTop=-1;spacingLeft=3;spacingRight=3;rotatable=0;labelPosition=right;points=[];portConstraint=eastwest;strokeColor=inherit;" parent="152" vertex="1"><mxGeometry y="26" width="230" height="8" as="geometry"/></mxCell><mxCell id="154" value="+ supports(handler: Object): bool" style="text;strokeColor=none;fillColor=none;align=left;verticalAlign=top;spacingLeft=4;spacingRight=4;overflow=hidden;rotatable=0;points=[[0,0.5],[1,0.5]];portConstraint=eastwest;" parent="152" vertex="1"><mxGeometry y="34" width="230" height="26" as="geometry"/></mxCell><mxCell id="155" value="+ handle(req, rep, handler): ModelView" style="text;strokeColor=none;fillColor=none;align=left;verticalAlign=top;spacingLeft=4;spacingRight=4;overflow=hidden;rotatable=0;points=[[0,0.5],[1,0.5]];portConstraint=eastwest;" parent="152" vertex="1"><mxGeometry y="60" width="230" height="26" as="geometry"/></mxCell><mxCell id="165" style="edgeStyle=none;rounded=0;orthogonalLoop=1;jettySize=auto;html=1;exitX=0.5;exitY=0;exitDx=0;exitDy=0;entryX=0.561;entryY=1.038;entryDx=0;entryDy=0;entryPerimeter=0;fontFamily=Lucida Console;fontSize=12;fontColor=#CC0066;endArrow=block;endFill=0;dashed=1;" parent="1" source="157" target="113" edge="1"><mxGeometry relative="1" as="geometry"/></mxCell><mxCell id="157" value="AbstractHandlerMapping" style="swimlane;fontStyle=1;align=center;verticalAlign=top;childLayout=stackLayout;horizontal=1;startSize=26;horizontalStack=0;resizeParent=1;resizeParentMax=0;resizeLast=0;collapsible=1;marginBottom=0;fillColor=#ffe6cc;strokeColor=#d79b00;" parent="1" vertex="1"><mxGeometry x="105" y="1197" width="230" height="60" as="geometry"/></mxCell><mxCell id="158" value="" style="line;strokeWidth=1;fillColor=none;align=left;verticalAlign=middle;spacingTop=-1;spacingLeft=3;spacingRight=3;rotatable=0;labelPosition=right;points=[];portConstraint=eastwest;strokeColor=inherit;" parent="157" vertex="1"><mxGeometry y="26" width="230" height="8" as="geometry"/></mxCell><mxCell id="168" value="# getHandlerInternal(req): Object" style="text;strokeColor=none;fillColor=none;align=left;verticalAlign=top;spacingLeft=4;spacingRight=4;overflow=hidden;rotatable=0;points=[[0,0.5],[1,0.5]];portConstraint=eastwest;" parent="157" vertex="1"><mxGeometry y="34" width="230" height="26" as="geometry"/></mxCell><mxCell id="166" style="edgeStyle=none;rounded=0;orthogonalLoop=1;jettySize=auto;html=1;entryX=0.5;entryY=1;entryDx=0;entryDy=0;fontFamily=Lucida Console;fontSize=12;fontColor=#CC0066;endArrow=block;endFill=0;" parent="1" source="161" target="157" edge="1"><mxGeometry relative="1" as="geometry"/></mxCell><mxCell id="161" value="AbstractHandlerMethodMapping&lt;T&gt;" style="swimlane;fontStyle=1;align=center;verticalAlign=top;childLayout=stackLayout;horizontal=1;startSize=26;horizontalStack=0;resizeParent=1;resizeParentMax=0;resizeLast=0;collapsible=1;marginBottom=0;fillColor=#ffe6cc;strokeColor=#d79b00;" parent="1" vertex="1"><mxGeometry x="69" y="1282" width="325" height="112" as="geometry"/></mxCell><mxCell id="162" value="" style="line;strokeWidth=1;fillColor=none;align=left;verticalAlign=middle;spacingTop=-1;spacingLeft=3;spacingRight=3;rotatable=0;labelPosition=right;points=[];portConstraint=eastwest;strokeColor=inherit;" parent="161" vertex="1"><mxGeometry y="26" width="325" height="8" as="geometry"/></mxCell><mxCell id="169" value="# getMappingForMethod(method, beanType): T" style="text;strokeColor=none;fillColor=none;align=left;verticalAlign=top;spacingLeft=4;spacingRight=4;overflow=hidden;rotatable=0;points=[[0,0.5],[1,0.5]];portConstraint=eastwest;" parent="161" vertex="1"><mxGeometry y="34" width="325" height="26" as="geometry"/></mxCell><mxCell id="170" value="# getMatchingMapping(mapping: T, req): T" style="text;strokeColor=none;fillColor=none;align=left;verticalAlign=top;spacingLeft=4;spacingRight=4;overflow=hidden;rotatable=0;points=[[0,0.5],[1,0.5]];portConstraint=eastwest;" parent="161" vertex="1"><mxGeometry y="60" width="325" height="26" as="geometry"/></mxCell><mxCell id="171" value="# getMappingComparator(req): Comparator&lt;T&gt;" style="text;strokeColor=none;fillColor=none;align=left;verticalAlign=top;spacingLeft=4;spacingRight=4;overflow=hidden;rotatable=0;points=[[0,0.5],[1,0.5]];portConstraint=eastwest;" parent="161" vertex="1"><mxGeometry y="86" width="325" height="26" as="geometry"/></mxCell><mxCell id="167" style="edgeStyle=none;rounded=0;orthogonalLoop=1;jettySize=auto;html=1;fontFamily=Lucida Console;fontSize=12;fontColor=#CC0066;endArrow=block;endFill=0;entryX=0.505;entryY=1;entryDx=0;entryDy=0;entryPerimeter=0;" parent="1" source="163" target="171" edge="1"><mxGeometry relative="1" as="geometry"/></mxCell><mxCell id="172" value="&lt;font color=&quot;#000000&quot;&gt;T : RequestMappingInfo:&lt;/font&gt;" style="edgeLabel;html=1;align=center;verticalAlign=middle;resizable=0;points=[];fontSize=12;fontFamily=Lucida Console;fontColor=#CC0066;" parent="167" vertex="1" connectable="0"><mxGeometry x="-0.2102" y="-1" relative="1" as="geometry"><mxPoint as="offset"/></mxGeometry></mxCell><mxCell id="163" value="«absract»&#10;RequestMappingInfoHandlerMapping" style="swimlane;fontStyle=1;align=center;verticalAlign=top;childLayout=stackLayout;horizontal=1;startSize=34;horizontalStack=0;resizeParent=1;resizeParentMax=0;resizeLast=0;collapsible=1;marginBottom=0;fillColor=#ffe6cc;strokeColor=#d79b00;" parent="1" vertex="1"><mxGeometry x="106.5" y="1470" width="250" height="42" as="geometry"/></mxCell><mxCell id="164" value="" style="line;strokeWidth=1;fillColor=none;align=left;verticalAlign=middle;spacingTop=-1;spacingLeft=3;spacingRight=3;rotatable=0;labelPosition=right;points=[];portConstraint=eastwest;strokeColor=inherit;" parent="163" vertex="1"><mxGeometry y="34" width="250" height="8" as="geometry"/></mxCell></root></mxGraphModel></diagram><diagram id="_QJSoqyM0QRCr9PYWYFg" name="Spring Data"><mxGraphModel dx="1104" dy="543" grid="1" gridSize="10" guides="1" tooltips="1" connect="1" arrows="1" fold="1" page="1" pageScale="1" pageWidth="1200" pageHeight="1920" math="0" shadow="0"><root><mxCell id="0"/><mxCell id="1" parent="0"/><mxCell id="_mbPFh-2NSBxMbOMVfWc-55" value="" style="rounded=1;whiteSpace=wrap;html=1;strokeColor=#0000FF;fontFamily=Helvetica;fontSize=14;fontColor=#FF0080;fillColor=none;dashed=1;arcSize=5;" parent="1" vertex="1"><mxGeometry x="30" y="1230" width="1130" height="580" as="geometry"/></mxCell><mxCell id="PZAI1VvfR2RByWitzSBP-1" value="«interface»&#10;EntityMetadata&lt;T&gt;" style="swimlane;fontStyle=1;align=center;verticalAlign=top;childLayout=stackLayout;horizontal=1;startSize=40;horizontalStack=0;resizeParent=1;resizeParentMax=0;resizeLast=0;collapsible=1;marginBottom=0;fillColor=#dae8fc;strokeColor=#FF0080;" parent="1" vertex="1"><mxGeometry x="712" y="40" width="160" height="74" as="geometry"/></mxCell><mxCell id="PZAI1VvfR2RByWitzSBP-3" value="" style="line;strokeWidth=1;fillColor=none;align=left;verticalAlign=middle;spacingTop=-1;spacingLeft=3;spacingRight=3;rotatable=0;labelPosition=right;points=[];portConstraint=eastwest;strokeColor=inherit;" parent="PZAI1VvfR2RByWitzSBP-1" vertex="1"><mxGeometry y="40" width="160" height="8" as="geometry"/></mxCell><mxCell id="PZAI1VvfR2RByWitzSBP-4" value="+ getJavaType(): Class&lt;T&gt;" style="text;strokeColor=none;fillColor=none;align=left;verticalAlign=top;spacingLeft=4;spacingRight=4;overflow=hidden;rotatable=0;points=[[0,0.5],[1,0.5]];portConstraint=eastwest;" parent="PZAI1VvfR2RByWitzSBP-1" vertex="1"><mxGeometry y="48" width="160" height="26" as="geometry"/></mxCell><mxCell id="erwozqigF-HU9bKup4V3-4" style="edgeStyle=orthogonalEdgeStyle;rounded=0;orthogonalLoop=1;jettySize=auto;html=1;entryX=0.501;entryY=0.971;entryDx=0;entryDy=0;entryPerimeter=0;endArrow=block;endFill=0;" parent="1" source="erwozqigF-HU9bKup4V3-1" target="PZAI1VvfR2RByWitzSBP-4" edge="1"><mxGeometry relative="1" as="geometry"/></mxCell><mxCell id="erwozqigF-HU9bKup4V3-1" value="«interface»&#10;EntityInformation&lt;T, ID&gt;" style="swimlane;fontStyle=1;align=center;verticalAlign=top;childLayout=stackLayout;horizontal=1;startSize=40;horizontalStack=0;resizeParent=1;resizeParentMax=0;resizeLast=0;collapsible=1;marginBottom=0;fillColor=#dae8fc;strokeColor=#FF0080;" parent="1" vertex="1"><mxGeometry x="702" y="200" width="180" height="126" as="geometry"/></mxCell><mxCell id="erwozqigF-HU9bKup4V3-2" value="" style="line;strokeWidth=1;fillColor=none;align=left;verticalAlign=middle;spacingTop=-1;spacingLeft=3;spacingRight=3;rotatable=0;labelPosition=right;points=[];portConstraint=eastwest;strokeColor=inherit;" parent="erwozqigF-HU9bKup4V3-1" vertex="1"><mxGeometry y="40" width="180" height="8" as="geometry"/></mxCell><mxCell id="erwozqigF-HU9bKup4V3-3" value="+ isNew(entity: T): boolean" style="text;strokeColor=none;fillColor=none;align=left;verticalAlign=top;spacingLeft=4;spacingRight=4;overflow=hidden;rotatable=0;points=[[0,0.5],[1,0.5]];portConstraint=eastwest;" parent="erwozqigF-HU9bKup4V3-1" vertex="1"><mxGeometry y="48" width="180" height="26" as="geometry"/></mxCell><mxCell id="erwozqigF-HU9bKup4V3-5" value="+ getId(entity): ID" style="text;strokeColor=none;fillColor=none;align=left;verticalAlign=top;spacingLeft=4;spacingRight=4;overflow=hidden;rotatable=0;points=[[0,0.5],[1,0.5]];portConstraint=eastwest;" parent="erwozqigF-HU9bKup4V3-1" vertex="1"><mxGeometry y="74" width="180" height="26" as="geometry"/></mxCell><mxCell id="erwozqigF-HU9bKup4V3-6" value="+ getIdType(entity): Class&lt;ID&gt;" style="text;strokeColor=none;fillColor=none;align=left;verticalAlign=top;spacingLeft=4;spacingRight=4;overflow=hidden;rotatable=0;points=[[0,0.5],[1,0.5]];portConstraint=eastwest;" parent="erwozqigF-HU9bKup4V3-1" vertex="1"><mxGeometry y="100" width="180" height="26" as="geometry"/></mxCell><mxCell id="erwozqigF-HU9bKup4V3-12" style="rounded=0;orthogonalLoop=1;jettySize=auto;html=1;entryX=0.491;entryY=1.009;entryDx=0;entryDy=0;entryPerimeter=0;endArrow=block;endFill=0;dashed=1;" parent="1" source="erwozqigF-HU9bKup4V3-7" target="erwozqigF-HU9bKup4V3-6" edge="1"><mxGeometry relative="1" as="geometry"/></mxCell><mxCell id="erwozqigF-HU9bKup4V3-7" value="«abstract»&#10;AbstractEntityInformation&lt;T, ID&gt;" style="swimlane;fontStyle=1;align=center;verticalAlign=top;childLayout=stackLayout;horizontal=1;startSize=40;horizontalStack=0;resizeParent=1;resizeParentMax=0;resizeLast=0;collapsible=1;marginBottom=0;fillColor=#ffe6cc;strokeColor=#FF0080;" parent="1" vertex="1"><mxGeometry x="687" y="500" width="210" height="48" as="geometry"/></mxCell><mxCell id="erwozqigF-HU9bKup4V3-8" value="" style="line;strokeWidth=1;fillColor=none;align=left;verticalAlign=middle;spacingTop=-1;spacingLeft=3;spacingRight=3;rotatable=0;labelPosition=right;points=[];portConstraint=eastwest;strokeColor=inherit;" parent="erwozqigF-HU9bKup4V3-7" vertex="1"><mxGeometry y="40" width="210" height="8" as="geometry"/></mxCell><mxCell id="erwozqigF-HU9bKup4V3-17" style="edgeStyle=orthogonalEdgeStyle;rounded=0;orthogonalLoop=1;jettySize=auto;html=1;entryX=0.5;entryY=1;entryDx=0;entryDy=0;endArrow=block;endFill=0;" parent="1" source="erwozqigF-HU9bKup4V3-13" target="erwozqigF-HU9bKup4V3-7" edge="1"><mxGeometry relative="1" as="geometry"><mxPoint x="791.3699999999999" y="572.1279999999999" as="targetPoint"/><Array as="points"><mxPoint x="517" y="680"/><mxPoint x="791" y="680"/></Array></mxGeometry></mxCell><mxCell id="erwozqigF-HU9bKup4V3-34" value="extends" style="edgeLabel;html=1;align=center;verticalAlign=middle;resizable=0;points=[];" parent="erwozqigF-HU9bKup4V3-17" vertex="1" connectable="0"><mxGeometry x="-0.2564" y="-2" relative="1" as="geometry"><mxPoint as="offset"/></mxGeometry></mxCell><mxCell id="erwozqigF-HU9bKup4V3-23" style="rounded=0;orthogonalLoop=1;jettySize=auto;html=1;exitX=0.25;exitY=0;exitDx=0;exitDy=0;entryX=0.202;entryY=1.069;entryDx=0;entryDy=0;entryPerimeter=0;endArrow=block;endFill=0;dashed=1;" parent="1" source="erwozqigF-HU9bKup4V3-13" target="erwozqigF-HU9bKup4V3-22" edge="1"><mxGeometry relative="1" as="geometry"/></mxCell><mxCell id="erwozqigF-HU9bKup4V3-25" value="implements" style="edgeLabel;html=1;align=center;verticalAlign=middle;resizable=0;points=[];" parent="erwozqigF-HU9bKup4V3-23" vertex="1" connectable="0"><mxGeometry x="0.0448" y="-1" relative="1" as="geometry"><mxPoint as="offset"/></mxGeometry></mxCell><mxCell id="_mbPFh-2NSBxMbOMVfWc-3" style="edgeStyle=orthogonalEdgeStyle;rounded=0;orthogonalLoop=1;jettySize=auto;html=1;exitX=0;exitY=0.25;exitDx=0;exitDy=0;entryX=0.468;entryY=1.03;entryDx=0;entryDy=0;entryPerimeter=0;dashed=1;endArrow=classic;endFill=1;" parent="1" source="erwozqigF-HU9bKup4V3-13" target="erwozqigF-HU9bKup4V3-42" edge="1"><mxGeometry relative="1" as="geometry"/></mxCell><mxCell id="_mbPFh-2NSBxMbOMVfWc-4" value="uses" style="edgeLabel;html=1;align=center;verticalAlign=middle;resizable=0;points=[];" parent="_mbPFh-2NSBxMbOMVfWc-3" vertex="1" connectable="0"><mxGeometry x="0.374" y="-1" relative="1" as="geometry"><mxPoint as="offset"/></mxGeometry></mxCell><mxCell id="erwozqigF-HU9bKup4V3-13" value="«abstract»&#10;JpaEntityInformationSupport&lt;T, ID&gt;" style="swimlane;fontStyle=1;align=center;verticalAlign=top;childLayout=stackLayout;horizontal=1;startSize=40;horizontalStack=0;resizeParent=1;resizeParentMax=0;resizeLast=0;collapsible=1;marginBottom=0;fillColor=#ffe6cc;strokeColor=#00FFFF;" parent="1" vertex="1"><mxGeometry x="342" y="698" width="230" height="48" as="geometry"/></mxCell><mxCell id="erwozqigF-HU9bKup4V3-14" value="" style="line;strokeWidth=1;fillColor=none;align=left;verticalAlign=middle;spacingTop=-1;spacingLeft=3;spacingRight=3;rotatable=0;labelPosition=right;points=[];portConstraint=eastwest;strokeColor=inherit;" parent="erwozqigF-HU9bKup4V3-13" vertex="1"><mxGeometry y="40" width="230" height="8" as="geometry"/></mxCell><mxCell id="erwozqigF-HU9bKup4V3-24" style="rounded=0;orthogonalLoop=1;jettySize=auto;html=1;endArrow=block;endFill=0;exitX=0.5;exitY=0;exitDx=0;exitDy=0;edgeStyle=orthogonalEdgeStyle;entryX=0.28;entryY=1.03;entryDx=0;entryDy=0;entryPerimeter=0;" parent="1" source="erwozqigF-HU9bKup4V3-18" target="erwozqigF-HU9bKup4V3-6" edge="1"><mxGeometry relative="1" as="geometry"><mxPoint x="792" y="420" as="targetPoint"/></mxGeometry></mxCell><mxCell id="erwozqigF-HU9bKup4V3-26" value="extends" style="edgeLabel;html=1;align=center;verticalAlign=middle;resizable=0;points=[];" parent="erwozqigF-HU9bKup4V3-24" vertex="1" connectable="0"><mxGeometry x="0.2483" y="-2" relative="1" as="geometry"><mxPoint as="offset"/></mxGeometry></mxCell><mxCell id="erwozqigF-HU9bKup4V3-30" style="rounded=0;orthogonalLoop=1;jettySize=auto;html=1;exitX=0.25;exitY=0;exitDx=0;exitDy=0;entryX=0.427;entryY=1.035;entryDx=0;entryDy=0;entryPerimeter=0;endArrow=block;endFill=0;" parent="1" source="erwozqigF-HU9bKup4V3-18" target="erwozqigF-HU9bKup4V3-29" edge="1"><mxGeometry relative="1" as="geometry"/></mxCell><mxCell id="erwozqigF-HU9bKup4V3-31" value="extends" style="edgeLabel;html=1;align=center;verticalAlign=middle;resizable=0;points=[];" parent="erwozqigF-HU9bKup4V3-30" vertex="1" connectable="0"><mxGeometry x="0.0938" relative="1" as="geometry"><mxPoint as="offset"/></mxGeometry></mxCell><mxCell id="erwozqigF-HU9bKup4V3-18" value="«interface»&#10;JpaEntityInformation&lt;T, ID&gt;" style="swimlane;fontStyle=1;align=center;verticalAlign=top;childLayout=stackLayout;horizontal=1;startSize=40;horizontalStack=0;resizeParent=1;resizeParentMax=0;resizeLast=0;collapsible=1;marginBottom=0;fillColor=#dae8fc;strokeColor=#00FFFF;" parent="1" vertex="1"><mxGeometry x="352" y="500" width="230" height="126" as="geometry"/></mxCell><mxCell id="erwozqigF-HU9bKup4V3-19" value="" style="line;strokeWidth=1;fillColor=none;align=left;verticalAlign=middle;spacingTop=-1;spacingLeft=3;spacingRight=3;rotatable=0;labelPosition=right;points=[];portConstraint=eastwest;strokeColor=inherit;" parent="erwozqigF-HU9bKup4V3-18" vertex="1"><mxGeometry y="40" width="230" height="8" as="geometry"/></mxCell><mxCell id="erwozqigF-HU9bKup4V3-20" value="+ getIdAttribute(): SingularAttribute&lt;ID&gt;" style="text;strokeColor=none;fillColor=none;align=left;verticalAlign=top;spacingLeft=4;spacingRight=4;overflow=hidden;rotatable=0;points=[[0,0.5],[1,0.5]];portConstraint=eastwest;" parent="erwozqigF-HU9bKup4V3-18" vertex="1"><mxGeometry y="48" width="230" height="26" as="geometry"/></mxCell><mxCell id="erwozqigF-HU9bKup4V3-21" value="+ hasCompositeId(): bool" style="text;strokeColor=none;fillColor=none;align=left;verticalAlign=top;spacingLeft=4;spacingRight=4;overflow=hidden;rotatable=0;points=[[0,0.5],[1,0.5]];portConstraint=eastwest;" parent="erwozqigF-HU9bKup4V3-18" vertex="1"><mxGeometry y="74" width="230" height="26" as="geometry"/></mxCell><mxCell id="erwozqigF-HU9bKup4V3-22" value="+ getIdAttributeNames(): String[]" style="text;strokeColor=none;fillColor=none;align=left;verticalAlign=top;spacingLeft=4;spacingRight=4;overflow=hidden;rotatable=0;points=[[0,0.5],[1,0.5]];portConstraint=eastwest;" parent="erwozqigF-HU9bKup4V3-18" vertex="1"><mxGeometry y="100" width="230" height="26" as="geometry"/></mxCell><mxCell id="erwozqigF-HU9bKup4V3-32" style="edgeStyle=orthogonalEdgeStyle;rounded=0;orthogonalLoop=1;jettySize=auto;html=1;entryX=0.347;entryY=0.992;entryDx=0;entryDy=0;endArrow=block;endFill=0;exitX=0.5;exitY=0;exitDx=0;exitDy=0;entryPerimeter=0;" parent="1" source="erwozqigF-HU9bKup4V3-27" target="PZAI1VvfR2RByWitzSBP-4" edge="1"><mxGeometry relative="1" as="geometry"/></mxCell><mxCell id="erwozqigF-HU9bKup4V3-33" value="extends" style="edgeLabel;html=1;align=center;verticalAlign=middle;resizable=0;points=[];" parent="erwozqigF-HU9bKup4V3-32" vertex="1" connectable="0"><mxGeometry x="0.0281" y="-3" relative="1" as="geometry"><mxPoint as="offset"/></mxGeometry></mxCell><mxCell id="erwozqigF-HU9bKup4V3-27" value="«interface»&#10;JpaEntityMetadata&lt;T&gt;" style="swimlane;fontStyle=1;align=center;verticalAlign=top;childLayout=stackLayout;horizontal=1;startSize=40;horizontalStack=0;resizeParent=1;resizeParentMax=0;resizeLast=0;collapsible=1;marginBottom=0;fillColor=#dae8fc;strokeColor=#00FFFF;" parent="1" vertex="1"><mxGeometry x="342" y="210" width="160" height="74" as="geometry"/></mxCell><mxCell id="erwozqigF-HU9bKup4V3-28" value="" style="line;strokeWidth=1;fillColor=none;align=left;verticalAlign=middle;spacingTop=-1;spacingLeft=3;spacingRight=3;rotatable=0;labelPosition=right;points=[];portConstraint=eastwest;strokeColor=inherit;" parent="erwozqigF-HU9bKup4V3-27" vertex="1"><mxGeometry y="40" width="160" height="8" as="geometry"/></mxCell><mxCell id="erwozqigF-HU9bKup4V3-29" value="+ getEntityName(): String" style="text;strokeColor=none;fillColor=none;align=left;verticalAlign=top;spacingLeft=4;spacingRight=4;overflow=hidden;rotatable=0;points=[[0,0.5],[1,0.5]];portConstraint=eastwest;" parent="erwozqigF-HU9bKup4V3-27" vertex="1"><mxGeometry y="48" width="160" height="26" as="geometry"/></mxCell><mxCell id="erwozqigF-HU9bKup4V3-39" style="edgeStyle=orthogonalEdgeStyle;rounded=0;orthogonalLoop=1;jettySize=auto;html=1;entryX=0.253;entryY=0.992;entryDx=0;entryDy=0;endArrow=block;endFill=0;dashed=1;exitX=0.75;exitY=0;exitDx=0;exitDy=0;entryPerimeter=0;" parent="1" source="erwozqigF-HU9bKup4V3-35" target="erwozqigF-HU9bKup4V3-29" edge="1"><mxGeometry relative="1" as="geometry"/></mxCell><mxCell id="erwozqigF-HU9bKup4V3-40" value="implements" style="edgeLabel;html=1;align=center;verticalAlign=middle;resizable=0;points=[];" parent="erwozqigF-HU9bKup4V3-39" vertex="1" connectable="0"><mxGeometry x="-0.0626" y="4" relative="1" as="geometry"><mxPoint as="offset"/></mxGeometry></mxCell><mxCell id="erwozqigF-HU9bKup4V3-35" value="DefaultJpaEntityMetadata&lt;T&gt;" style="swimlane;fontStyle=1;align=center;verticalAlign=top;childLayout=stackLayout;horizontal=1;startSize=30;horizontalStack=0;resizeParent=1;resizeParentMax=0;resizeLast=0;collapsible=1;marginBottom=0;fillColor=#ffe6cc;strokeColor=#00FFFF;" parent="1" vertex="1"><mxGeometry x="93" y="500" width="202" height="90" as="geometry"/></mxCell><mxCell id="erwozqigF-HU9bKup4V3-36" value="" style="line;strokeWidth=1;fillColor=none;align=left;verticalAlign=middle;spacingTop=-1;spacingLeft=3;spacingRight=3;rotatable=0;labelPosition=right;points=[];portConstraint=eastwest;strokeColor=inherit;" parent="erwozqigF-HU9bKup4V3-35" vertex="1"><mxGeometry y="30" width="202" height="8" as="geometry"/></mxCell><mxCell id="erwozqigF-HU9bKup4V3-41" value="+ getJavaType(): Class&lt;T&gt;" style="text;strokeColor=none;fillColor=none;align=left;verticalAlign=top;spacingLeft=4;spacingRight=4;overflow=hidden;rotatable=0;points=[[0,0.5],[1,0.5]];portConstraint=eastwest;" parent="erwozqigF-HU9bKup4V3-35" vertex="1"><mxGeometry y="38" width="202" height="26" as="geometry"/></mxCell><mxCell id="erwozqigF-HU9bKup4V3-42" value="+ getEntityName(): String" style="text;strokeColor=none;fillColor=none;align=left;verticalAlign=top;spacingLeft=4;spacingRight=4;overflow=hidden;rotatable=0;points=[[0,0.5],[1,0.5]];portConstraint=eastwest;" parent="erwozqigF-HU9bKup4V3-35" vertex="1"><mxGeometry y="64" width="202" height="26" as="geometry"/></mxCell><mxCell id="_mbPFh-2NSBxMbOMVfWc-2" style="rounded=0;orthogonalLoop=1;jettySize=auto;html=1;entryX=0.25;entryY=0;entryDx=0;entryDy=0;dashed=1;endArrow=none;endFill=0;" parent="1" source="_mbPFh-2NSBxMbOMVfWc-1" target="erwozqigF-HU9bKup4V3-35" edge="1"><mxGeometry relative="1" as="geometry"/></mxCell><mxCell id="_mbPFh-2NSBxMbOMVfWc-1" value="&lt;font color=&quot;#000000&quot;&gt;&lt;span style=&quot;font-size: 12px;&quot;&gt;Implements his methods using the informations from the &lt;b&gt;@Entity annotation&lt;/b&gt;.&lt;/span&gt;&lt;/font&gt;" style="shape=note;strokeWidth=2;fontSize=14;size=20;whiteSpace=wrap;html=1;fillColor=#fff2cc;strokeColor=#d6b656;" parent="1" vertex="1"><mxGeometry x="50" y="390" width="180" height="80" as="geometry"/></mxCell><mxCell id="_mbPFh-2NSBxMbOMVfWc-10" value="" style="rounded=0;orthogonalLoop=1;jettySize=auto;html=1;endArrow=block;endFill=0;entryX=0.5;entryY=1;entryDx=0;entryDy=0;" parent="1" source="_mbPFh-2NSBxMbOMVfWc-5" target="erwozqigF-HU9bKup4V3-13" edge="1"><mxGeometry relative="1" as="geometry"><mxPoint x="457" y="794" as="targetPoint"/></mxGeometry></mxCell><mxCell id="_mbPFh-2NSBxMbOMVfWc-11" value="extends" style="edgeLabel;html=1;align=center;verticalAlign=middle;resizable=0;points=[];" parent="_mbPFh-2NSBxMbOMVfWc-10" vertex="1" connectable="0"><mxGeometry x="0.0016" relative="1" as="geometry"><mxPoint as="offset"/></mxGeometry></mxCell><mxCell id="_mbPFh-2NSBxMbOMVfWc-5" value="JpaMetamodelEntityInformation&lt;T, ID&gt;" style="swimlane;fontStyle=1;align=center;verticalAlign=top;childLayout=stackLayout;horizontal=1;startSize=30;horizontalStack=0;resizeParent=1;resizeParentMax=0;resizeLast=0;collapsible=1;marginBottom=0;fillColor=#ffe6cc;strokeColor=#00FFFF;" parent="1" vertex="1"><mxGeometry x="323" y="797" width="268" height="90" as="geometry"/></mxCell><mxCell id="_mbPFh-2NSBxMbOMVfWc-6" value="" style="line;strokeWidth=1;fillColor=none;align=left;verticalAlign=middle;spacingTop=-1;spacingLeft=3;spacingRight=3;rotatable=0;labelPosition=right;points=[];portConstraint=eastwest;strokeColor=inherit;" parent="_mbPFh-2NSBxMbOMVfWc-5" vertex="1"><mxGeometry y="30" width="268" height="8" as="geometry"/></mxCell><mxCell id="_mbPFh-2NSBxMbOMVfWc-7" value="+ getId(entity): ID" style="text;strokeColor=none;fillColor=none;align=left;verticalAlign=top;spacingLeft=4;spacingRight=4;overflow=hidden;rotatable=0;points=[[0,0.5],[1,0.5]];portConstraint=eastwest;" parent="_mbPFh-2NSBxMbOMVfWc-5" vertex="1"><mxGeometry y="38" width="268" height="26" as="geometry"/></mxCell><mxCell id="_mbPFh-2NSBxMbOMVfWc-8" value="+ getIdType(entity): Class&lt;ID&gt;" style="text;strokeColor=none;fillColor=none;align=left;verticalAlign=top;spacingLeft=4;spacingRight=4;overflow=hidden;rotatable=0;points=[[0,0.5],[1,0.5]];portConstraint=eastwest;" parent="_mbPFh-2NSBxMbOMVfWc-5" vertex="1"><mxGeometry y="64" width="268" height="26" as="geometry"/></mxCell><mxCell id="_mbPFh-2NSBxMbOMVfWc-35" style="rounded=0;orthogonalLoop=1;jettySize=auto;html=1;exitX=0.5;exitY=0;exitDx=0;exitDy=0;entryX=0.5;entryY=1;entryDx=0;entryDy=0;endArrow=block;endFill=0;dashed=1;" parent="1" source="_mbPFh-2NSBxMbOMVfWc-12" target="_mbPFh-2NSBxMbOMVfWc-16" edge="1"><mxGeometry relative="1" as="geometry"/></mxCell><mxCell id="_mbPFh-2NSBxMbOMVfWc-37" style="rounded=0;orthogonalLoop=1;jettySize=auto;html=1;exitX=0.75;exitY=1;exitDx=0;exitDy=0;entryX=0;entryY=0;entryDx=80;entryDy=0;entryPerimeter=0;dashed=1;fontFamily=Helvetica;fontSize=12;endArrow=none;endFill=0;" parent="1" source="_mbPFh-2NSBxMbOMVfWc-12" target="_mbPFh-2NSBxMbOMVfWc-36" edge="1"><mxGeometry relative="1" as="geometry"/></mxCell><mxCell id="_mbPFh-2NSBxMbOMVfWc-40" style="edgeStyle=orthogonalEdgeStyle;rounded=0;orthogonalLoop=1;jettySize=auto;html=1;exitX=0;exitY=0.5;exitDx=0;exitDy=0;entryX=0.5;entryY=1;entryDx=0;entryDy=0;dashed=1;fontFamily=Helvetica;fontSize=12;endArrow=classic;endFill=1;" parent="1" source="_mbPFh-2NSBxMbOMVfWc-12" target="_mbPFh-2NSBxMbOMVfWc-38" edge="1"><mxGeometry relative="1" as="geometry"/></mxCell><mxCell id="_mbPFh-2NSBxMbOMVfWc-43" value="uses" style="edgeLabel;html=1;align=center;verticalAlign=middle;resizable=0;points=[];fontSize=12;fontFamily=Helvetica;" parent="_mbPFh-2NSBxMbOMVfWc-40" vertex="1" connectable="0"><mxGeometry x="0.6636" y="-3" relative="1" as="geometry"><mxPoint as="offset"/></mxGeometry></mxCell><mxCell id="_mbPFh-2NSBxMbOMVfWc-41" style="edgeStyle=orthogonalEdgeStyle;rounded=0;orthogonalLoop=1;jettySize=auto;html=1;exitX=0;exitY=0.5;exitDx=0;exitDy=0;entryX=0.407;entryY=1.022;entryDx=0;entryDy=0;entryPerimeter=0;dashed=1;fontFamily=Helvetica;fontSize=12;endArrow=classic;endFill=1;" parent="1" source="_mbPFh-2NSBxMbOMVfWc-12" target="_mbPFh-2NSBxMbOMVfWc-8" edge="1"><mxGeometry relative="1" as="geometry"/></mxCell><mxCell id="_mbPFh-2NSBxMbOMVfWc-42" value="uses" style="edgeLabel;html=1;align=center;verticalAlign=middle;resizable=0;points=[];fontSize=12;fontFamily=Helvetica;" parent="_mbPFh-2NSBxMbOMVfWc-41" vertex="1" connectable="0"><mxGeometry x="0.5758" relative="1" as="geometry"><mxPoint as="offset"/></mxGeometry></mxCell><mxCell id="_mbPFh-2NSBxMbOMVfWc-12" value="SimpleJpaRepository&lt;T, ID&gt;" style="swimlane;fontStyle=1;align=center;verticalAlign=top;childLayout=stackLayout;horizontal=1;startSize=30;horizontalStack=0;resizeParent=1;resizeParentMax=0;resizeLast=0;collapsible=1;marginBottom=0;fillColor=#f8cecc;strokeColor=#00FFFF;" parent="1" vertex="1"><mxGeometry x="751" y="1040" width="268" height="38" as="geometry"/></mxCell><mxCell id="_mbPFh-2NSBxMbOMVfWc-13" value="" style="line;strokeWidth=1;fillColor=none;align=left;verticalAlign=middle;spacingTop=-1;spacingLeft=3;spacingRight=3;rotatable=0;labelPosition=right;points=[];portConstraint=eastwest;strokeColor=inherit;" parent="_mbPFh-2NSBxMbOMVfWc-12" vertex="1"><mxGeometry y="30" width="268" height="8" as="geometry"/></mxCell><mxCell id="_mbPFh-2NSBxMbOMVfWc-33" style="edgeStyle=orthogonalEdgeStyle;rounded=0;orthogonalLoop=1;jettySize=auto;html=1;exitX=0.75;exitY=0;exitDx=0;exitDy=0;entryX=0.5;entryY=1;entryDx=0;entryDy=0;endArrow=block;endFill=0;" parent="1" source="_mbPFh-2NSBxMbOMVfWc-16" target="_mbPFh-2NSBxMbOMVfWc-19" edge="1"><mxGeometry relative="1" as="geometry"/></mxCell><mxCell id="_mbPFh-2NSBxMbOMVfWc-34" style="edgeStyle=orthogonalEdgeStyle;rounded=0;orthogonalLoop=1;jettySize=auto;html=1;exitX=0.75;exitY=0;exitDx=0;exitDy=0;entryX=0.5;entryY=1;entryDx=0;entryDy=0;endArrow=block;endFill=0;" parent="1" source="_mbPFh-2NSBxMbOMVfWc-16" target="_mbPFh-2NSBxMbOMVfWc-21" edge="1"><mxGeometry relative="1" as="geometry"><Array as="points"><mxPoint x="948" y="940"/><mxPoint x="1071" y="940"/></Array></mxGeometry></mxCell><mxCell id="_mbPFh-2NSBxMbOMVfWc-16" value="«interface»&#10;JpaRepositoryImplementation&lt;T, ID&gt;" style="swimlane;fontStyle=1;align=center;verticalAlign=top;childLayout=stackLayout;horizontal=1;startSize=40;horizontalStack=0;resizeParent=1;resizeParentMax=0;resizeLast=0;collapsible=1;marginBottom=0;fillColor=#dae8fc;strokeColor=#00FFFF;" parent="1" vertex="1"><mxGeometry x="760" y="960" width="250" height="48" as="geometry"/></mxCell><mxCell id="_mbPFh-2NSBxMbOMVfWc-17" value="" style="line;strokeWidth=1;fillColor=none;align=left;verticalAlign=middle;spacingTop=-1;spacingLeft=3;spacingRight=3;rotatable=0;labelPosition=right;points=[];portConstraint=eastwest;strokeColor=inherit;" parent="_mbPFh-2NSBxMbOMVfWc-16" vertex="1"><mxGeometry y="40" width="250" height="8" as="geometry"/></mxCell><mxCell id="_mbPFh-2NSBxMbOMVfWc-31" style="edgeStyle=orthogonalEdgeStyle;rounded=0;orthogonalLoop=1;jettySize=auto;html=1;exitX=0.711;exitY=0.007;exitDx=0;exitDy=0;entryX=0.5;entryY=1;entryDx=0;entryDy=0;endArrow=block;endFill=0;exitPerimeter=0;" parent="1" source="_mbPFh-2NSBxMbOMVfWc-19" target="_mbPFh-2NSBxMbOMVfWc-23" edge="1"><mxGeometry relative="1" as="geometry"/></mxCell><mxCell id="_mbPFh-2NSBxMbOMVfWc-32" style="edgeStyle=orthogonalEdgeStyle;rounded=0;orthogonalLoop=1;jettySize=auto;html=1;exitX=0.7;exitY=-0.014;exitDx=0;exitDy=0;entryX=0.5;entryY=1;entryDx=0;entryDy=0;endArrow=block;endFill=0;exitPerimeter=0;" parent="1" source="_mbPFh-2NSBxMbOMVfWc-19" target="_mbPFh-2NSBxMbOMVfWc-25" edge="1"><mxGeometry relative="1" as="geometry"/></mxCell><mxCell id="_mbPFh-2NSBxMbOMVfWc-19" value="«interface»&#10;JpaRepository&lt;T, ID&gt;" style="swimlane;fontStyle=1;align=center;verticalAlign=top;childLayout=stackLayout;horizontal=1;startSize=40;horizontalStack=0;resizeParent=1;resizeParentMax=0;resizeLast=0;collapsible=1;marginBottom=0;fillColor=#dae8fc;strokeColor=#00FFFF;" parent="1" vertex="1"><mxGeometry x="760" y="880" width="180" height="48" as="geometry"/></mxCell><mxCell id="_mbPFh-2NSBxMbOMVfWc-20" value="" style="line;strokeWidth=1;fillColor=none;align=left;verticalAlign=middle;spacingTop=-1;spacingLeft=3;spacingRight=3;rotatable=0;labelPosition=right;points=[];portConstraint=eastwest;strokeColor=inherit;" parent="_mbPFh-2NSBxMbOMVfWc-19" vertex="1"><mxGeometry y="40" width="180" height="8" as="geometry"/></mxCell><mxCell id="_mbPFh-2NSBxMbOMVfWc-21" value="«interface»&#10;JpaSpecificationExecutor&lt;T&gt;" style="swimlane;fontStyle=1;align=center;verticalAlign=top;childLayout=stackLayout;horizontal=1;startSize=40;horizontalStack=0;resizeParent=1;resizeParentMax=0;resizeLast=0;collapsible=1;marginBottom=0;fillColor=#dae8fc;strokeColor=#00FFFF;" parent="1" vertex="1"><mxGeometry x="976" y="880" width="190" height="48" as="geometry"/></mxCell><mxCell id="_mbPFh-2NSBxMbOMVfWc-22" value="" style="line;strokeWidth=1;fillColor=none;align=left;verticalAlign=middle;spacingTop=-1;spacingLeft=3;spacingRight=3;rotatable=0;labelPosition=right;points=[];portConstraint=eastwest;strokeColor=inherit;" parent="_mbPFh-2NSBxMbOMVfWc-21" vertex="1"><mxGeometry y="40" width="190" height="8" as="geometry"/></mxCell><mxCell id="_mbPFh-2NSBxMbOMVfWc-29" style="edgeStyle=none;rounded=0;orthogonalLoop=1;jettySize=auto;html=1;exitX=0.5;exitY=0;exitDx=0;exitDy=0;entryX=0.5;entryY=1;entryDx=0;entryDy=0;endArrow=block;endFill=0;" parent="1" source="_mbPFh-2NSBxMbOMVfWc-23" target="_mbPFh-2NSBxMbOMVfWc-27" edge="1"><mxGeometry relative="1" as="geometry"/></mxCell><mxCell id="_mbPFh-2NSBxMbOMVfWc-23" value="«interface»&#10;CrudRepository&lt;T, ID&gt;" style="swimlane;fontStyle=1;align=center;verticalAlign=top;childLayout=stackLayout;horizontal=1;startSize=40;horizontalStack=0;resizeParent=1;resizeParentMax=0;resizeLast=0;collapsible=1;marginBottom=0;fillColor=#dae8fc;strokeColor=#FF0080;" parent="1" vertex="1"><mxGeometry x="760" y="790" width="180" height="48" as="geometry"/></mxCell><mxCell id="_mbPFh-2NSBxMbOMVfWc-24" value="" style="line;strokeWidth=1;fillColor=none;align=left;verticalAlign=middle;spacingTop=-1;spacingLeft=3;spacingRight=3;rotatable=0;labelPosition=right;points=[];portConstraint=eastwest;strokeColor=inherit;" parent="_mbPFh-2NSBxMbOMVfWc-23" vertex="1"><mxGeometry y="40" width="180" height="8" as="geometry"/></mxCell><mxCell id="_mbPFh-2NSBxMbOMVfWc-45" style="rounded=0;orthogonalLoop=1;jettySize=auto;html=1;exitX=0.5;exitY=0;exitDx=0;exitDy=0;entryX=0.75;entryY=1;entryDx=0;entryDy=0;fontFamily=Helvetica;fontSize=14;fontColor=#4C0099;endArrow=block;endFill=0;edgeStyle=orthogonalEdgeStyle;" parent="1" source="_mbPFh-2NSBxMbOMVfWc-25" target="_mbPFh-2NSBxMbOMVfWc-27" edge="1"><mxGeometry relative="1" as="geometry"><Array as="points"><mxPoint x="1076" y="780"/><mxPoint x="956" y="780"/><mxPoint x="956" y="778"/><mxPoint x="895" y="778"/></Array></mxGeometry></mxCell><mxCell id="_mbPFh-2NSBxMbOMVfWc-25" value="«interface»&#10;PageAndSortingRepository&lt;T, ID&gt;" style="swimlane;fontStyle=1;align=center;verticalAlign=top;childLayout=stackLayout;horizontal=1;startSize=40;horizontalStack=0;resizeParent=1;resizeParentMax=0;resizeLast=0;collapsible=1;marginBottom=0;fillColor=#dae8fc;strokeColor=#FF0080;" parent="1" vertex="1"><mxGeometry x="976" y="788" width="200" height="48" as="geometry"/></mxCell><mxCell id="_mbPFh-2NSBxMbOMVfWc-26" value="" style="line;strokeWidth=1;fillColor=none;align=left;verticalAlign=middle;spacingTop=-1;spacingLeft=3;spacingRight=3;rotatable=0;labelPosition=right;points=[];portConstraint=eastwest;strokeColor=inherit;" parent="_mbPFh-2NSBxMbOMVfWc-25" vertex="1"><mxGeometry y="40" width="200" height="8" as="geometry"/></mxCell><mxCell id="_mbPFh-2NSBxMbOMVfWc-27" value="«interface»&#10;Repository&lt;T, ID&gt;" style="swimlane;fontStyle=1;align=center;verticalAlign=top;childLayout=stackLayout;horizontal=1;startSize=40;horizontalStack=0;resizeParent=1;resizeParentMax=0;resizeLast=0;collapsible=1;marginBottom=0;fillColor=#dae8fc;strokeColor=#FF0080;" parent="1" vertex="1"><mxGeometry x="760" y="710" width="180" height="48" as="geometry"/></mxCell><mxCell id="_mbPFh-2NSBxMbOMVfWc-28" value="" style="line;strokeWidth=1;fillColor=none;align=left;verticalAlign=middle;spacingTop=-1;spacingLeft=3;spacingRight=3;rotatable=0;labelPosition=right;points=[];portConstraint=eastwest;strokeColor=inherit;" parent="_mbPFh-2NSBxMbOMVfWc-27" vertex="1"><mxGeometry y="40" width="180" height="8" as="geometry"/></mxCell><mxCell id="_mbPFh-2NSBxMbOMVfWc-36" value="&lt;div style=&quot;text-align: left; font-size: 13px;&quot;&gt;&lt;span style=&quot;color: rgb(0, 0, 0); background-color: initial;&quot;&gt;&lt;font style=&quot;font-size: 13px;&quot;&gt;+ class &lt;b&gt;@Transaction(readonly=true)&lt;/b&gt;&lt;/font&gt;&lt;/span&gt;&lt;/div&gt;&lt;div style=&quot;text-align: left; font-size: 13px;&quot;&gt;&lt;span style=&quot;color: rgb(0, 0, 0); background-color: initial;&quot;&gt;&lt;font style=&quot;font-size: 13px;&quot;&gt;+ Implements all methods&lt;br&gt;&lt;/font&gt;&lt;/span&gt;&lt;/div&gt;&lt;div style=&quot;text-align: left;&quot;&gt;&lt;span style=&quot;background-color: initial;&quot;&gt;&lt;font style=&quot;&quot;&gt;&lt;font color=&quot;#000000&quot;&gt;+ changing methods are all &lt;b&gt;@Transactional&lt;/b&gt;&lt;/font&gt;&lt;br&gt;&lt;/font&gt;&lt;/span&gt;&lt;/div&gt;" style="shape=note;strokeWidth=2;fontSize=14;size=20;whiteSpace=wrap;html=1;fillColor=#fff2cc;strokeColor=#d6b656;" parent="1" vertex="1"><mxGeometry x="920" y="1110" width="246" height="80" as="geometry"/></mxCell><mxCell id="_mbPFh-2NSBxMbOMVfWc-38" value="«interface»&#10;jakarta.persistence.EntityManager" style="swimlane;fontStyle=1;align=center;verticalAlign=top;childLayout=stackLayout;horizontal=1;startSize=40;horizontalStack=0;resizeParent=1;resizeParentMax=0;resizeLast=0;collapsible=1;marginBottom=0;fillColor=#008a00;strokeColor=#005700;fontColor=#ffffff;" parent="1" vertex="1"><mxGeometry x="530" y="960" width="210" height="48" as="geometry"/></mxCell><mxCell id="_mbPFh-2NSBxMbOMVfWc-39" value="" style="line;strokeWidth=1;fillColor=none;align=left;verticalAlign=middle;spacingTop=-1;spacingLeft=3;spacingRight=3;rotatable=0;labelPosition=right;points=[];portConstraint=eastwest;strokeColor=inherit;" parent="_mbPFh-2NSBxMbOMVfWc-38" vertex="1"><mxGeometry y="40" width="210" height="8" as="geometry"/></mxCell><mxCell id="_mbPFh-2NSBxMbOMVfWc-46" value="org.springframework.data" style="text;align=left;fontStyle=1;verticalAlign=middle;spacingLeft=3;spacingRight=3;strokeColor=none;rotatable=0;points=[[0,0.5],[1,0.5]];portConstraint=eastwest;fontSize=14;fontFamily=Helvetica;fontColor=#FF0080;" parent="1" vertex="1"><mxGeometry x="40" y="30" width="280" height="26" as="geometry"/></mxCell><mxCell id="_mbPFh-2NSBxMbOMVfWc-47" value="org.springframework.data.jpa" style="text;align=left;fontStyle=1;verticalAlign=middle;spacingLeft=3;spacingRight=3;strokeColor=none;rotatable=0;points=[[0,0.5],[1,0.5]];portConstraint=eastwest;fontSize=14;fontFamily=Helvetica;fontColor=#00FFFF;" parent="1" vertex="1"><mxGeometry x="40" y="50" width="280" height="26" as="geometry"/></mxCell><mxCell id="_mbPFh-2NSBxMbOMVfWc-52" style="rounded=0;orthogonalLoop=1;jettySize=auto;html=1;fontFamily=Helvetica;fontSize=14;fontColor=#FF0080;endArrow=block;endFill=0;" parent="1" source="_mbPFh-2NSBxMbOMVfWc-48" target="_mbPFh-2NSBxMbOMVfWc-50" edge="1"><mxGeometry relative="1" as="geometry"/></mxCell><mxCell id="_mbPFh-2NSBxMbOMVfWc-77" value="extends" style="edgeLabel;html=1;align=center;verticalAlign=middle;resizable=0;points=[];fontSize=12;fontFamily=Helvetica;fontColor=#000000;" parent="_mbPFh-2NSBxMbOMVfWc-52" vertex="1" connectable="0"><mxGeometry x="-0.0286" relative="1" as="geometry"><mxPoint as="offset"/></mxGeometry></mxCell><mxCell id="_mbPFh-2NSBxMbOMVfWc-75" style="edgeStyle=orthogonalEdgeStyle;rounded=0;orthogonalLoop=1;jettySize=auto;html=1;exitX=0.75;exitY=0;exitDx=0;exitDy=0;entryX=0.5;entryY=1;entryDx=0;entryDy=0;dashed=1;fontFamily=Helvetica;fontSize=12;fontColor=#000000;endArrow=block;endFill=0;" parent="1" source="_mbPFh-2NSBxMbOMVfWc-48" target="_mbPFh-2NSBxMbOMVfWc-73" edge="1"><mxGeometry relative="1" as="geometry"/></mxCell><mxCell id="_mbPFh-2NSBxMbOMVfWc-76" value="extends" style="edgeLabel;html=1;align=center;verticalAlign=middle;resizable=0;points=[];fontSize=12;fontFamily=Helvetica;fontColor=#000000;" parent="_mbPFh-2NSBxMbOMVfWc-75" vertex="1" connectable="0"><mxGeometry x="-0.1729" y="-1" relative="1" as="geometry"><mxPoint as="offset"/></mxGeometry></mxCell><mxCell id="_mbPFh-2NSBxMbOMVfWc-48" value="«interface»&#10;BookRepository&lt;T, ID&gt;" style="swimlane;fontStyle=1;align=center;verticalAlign=top;childLayout=stackLayout;horizontal=1;startSize=40;horizontalStack=0;resizeParent=1;resizeParentMax=0;resizeLast=0;collapsible=1;marginBottom=0;fillColor=#f5f5f5;strokeColor=#666666;fontColor=#333333;" parent="1" vertex="1"><mxGeometry x="80" y="1390" width="180" height="48" as="geometry"/></mxCell><mxCell id="_mbPFh-2NSBxMbOMVfWc-49" value="" style="line;strokeWidth=1;fillColor=none;align=left;verticalAlign=middle;spacingTop=-1;spacingLeft=3;spacingRight=3;rotatable=0;labelPosition=right;points=[];portConstraint=eastwest;strokeColor=inherit;" parent="_mbPFh-2NSBxMbOMVfWc-48" vertex="1"><mxGeometry y="40" width="180" height="8" as="geometry"/></mxCell><mxCell id="_mbPFh-2NSBxMbOMVfWc-50" value="«interface»&#10;JpaRepository&lt;T, ID&gt;" style="swimlane;fontStyle=1;align=center;verticalAlign=top;childLayout=stackLayout;horizontal=1;startSize=40;horizontalStack=0;resizeParent=1;resizeParentMax=0;resizeLast=0;collapsible=1;marginBottom=0;fillColor=#dae8fc;strokeColor=#00FFFF;" parent="1" vertex="1"><mxGeometry x="80" y="1270" width="180" height="48" as="geometry"/></mxCell><mxCell id="_mbPFh-2NSBxMbOMVfWc-51" value="" style="line;strokeWidth=1;fillColor=none;align=left;verticalAlign=middle;spacingTop=-1;spacingLeft=3;spacingRight=3;rotatable=0;labelPosition=right;points=[];portConstraint=eastwest;strokeColor=inherit;" parent="_mbPFh-2NSBxMbOMVfWc-50" vertex="1"><mxGeometry y="40" width="180" height="8" as="geometry"/></mxCell><mxCell id="_mbPFh-2NSBxMbOMVfWc-53" value="BookEntity" style="swimlane;fontStyle=1;align=center;verticalAlign=top;childLayout=stackLayout;horizontal=1;startSize=30;horizontalStack=0;resizeParent=1;resizeParentMax=0;resizeLast=0;collapsible=1;marginBottom=0;fillColor=#f5f5f5;strokeColor=#666666;fontColor=#333333;" parent="1" vertex="1"><mxGeometry x="582" y="1352" width="120" height="38" as="geometry"/></mxCell><mxCell id="_mbPFh-2NSBxMbOMVfWc-54" value="" style="line;strokeWidth=1;fillColor=none;align=left;verticalAlign=middle;spacingTop=-1;spacingLeft=3;spacingRight=3;rotatable=0;labelPosition=right;points=[];portConstraint=eastwest;strokeColor=inherit;" parent="_mbPFh-2NSBxMbOMVfWc-53" vertex="1"><mxGeometry y="30" width="120" height="8" as="geometry"/></mxCell><mxCell id="_mbPFh-2NSBxMbOMVfWc-56" value="Your Spring boot application" style="text;html=1;strokeColor=none;fillColor=none;align=center;verticalAlign=middle;whiteSpace=wrap;rounded=0;fontSize=14;fontFamily=Helvetica;fontColor=#FF0080;" parent="1" vertex="1"><mxGeometry x="40" y="1230" width="190" height="30" as="geometry"/></mxCell><mxCell id="_mbPFh-2NSBxMbOMVfWc-59" style="edgeStyle=orthogonalEdgeStyle;rounded=0;orthogonalLoop=1;jettySize=auto;html=1;exitX=0.25;exitY=0;exitDx=0;exitDy=0;entryX=0.75;entryY=1;entryDx=0;entryDy=0;fontFamily=Helvetica;fontSize=14;fontColor=#FF0080;endArrow=block;endFill=0;dashed=1;" parent="1" source="_mbPFh-2NSBxMbOMVfWc-57" target="_mbPFh-2NSBxMbOMVfWc-48" edge="1"><mxGeometry relative="1" as="geometry"/></mxCell><mxCell id="_mbPFh-2NSBxMbOMVfWc-62" value="implements" style="edgeLabel;html=1;align=center;verticalAlign=middle;resizable=0;points=[];fontSize=12;fontFamily=Helvetica;fontColor=#000000;" parent="_mbPFh-2NSBxMbOMVfWc-59" vertex="1" connectable="0"><mxGeometry x="0.0477" y="2" relative="1" as="geometry"><mxPoint as="offset"/></mxGeometry></mxCell><mxCell id="_mbPFh-2NSBxMbOMVfWc-60" style="rounded=0;orthogonalLoop=1;jettySize=auto;html=1;exitX=0.75;exitY=0;exitDx=0;exitDy=0;entryX=0.5;entryY=1;entryDx=0;entryDy=0;fontFamily=Helvetica;fontSize=14;fontColor=#FF0080;endArrow=block;endFill=0;edgeStyle=orthogonalEdgeStyle;" parent="1" source="_mbPFh-2NSBxMbOMVfWc-57" target="_mbPFh-2NSBxMbOMVfWc-12" edge="1"><mxGeometry relative="1" as="geometry"/></mxCell><mxCell id="_mbPFh-2NSBxMbOMVfWc-61" value="&lt;font style=&quot;font-size: 12px;&quot; color=&quot;#000000&quot;&gt;extends&lt;/font&gt;" style="edgeLabel;html=1;align=center;verticalAlign=middle;resizable=0;points=[];fontSize=14;fontFamily=Helvetica;fontColor=#FF0080;" parent="_mbPFh-2NSBxMbOMVfWc-60" vertex="1" connectable="0"><mxGeometry x="0.1996" y="-1" relative="1" as="geometry"><mxPoint as="offset"/></mxGeometry></mxCell><mxCell id="_mbPFh-2NSBxMbOMVfWc-69" style="edgeStyle=none;rounded=0;orthogonalLoop=1;jettySize=auto;html=1;exitX=0;exitY=0.5;exitDx=0;exitDy=0;entryX=0.75;entryY=0;entryDx=0;entryDy=0;dashed=1;fontFamily=Helvetica;fontSize=12;fontColor=#000000;endArrow=classic;endFill=1;strokeColor=#FF0000;" parent="1" source="_mbPFh-2NSBxMbOMVfWc-57" target="_mbPFh-2NSBxMbOMVfWc-65" edge="1"><mxGeometry relative="1" as="geometry"/></mxCell><mxCell id="_mbPFh-2NSBxMbOMVfWc-70" value="will be injected by Spring IoC" style="edgeLabel;html=1;align=center;verticalAlign=middle;resizable=0;points=[];fontSize=12;fontFamily=Helvetica;fontColor=#FF0000;" parent="_mbPFh-2NSBxMbOMVfWc-69" vertex="1" connectable="0"><mxGeometry x="0.136" y="-1" relative="1" as="geometry"><mxPoint as="offset"/></mxGeometry></mxCell><mxCell id="_mbPFh-2NSBxMbOMVfWc-81" style="edgeStyle=orthogonalEdgeStyle;rounded=0;orthogonalLoop=1;jettySize=auto;html=1;exitX=0.5;exitY=0;exitDx=0;exitDy=0;entryX=1;entryY=0.5;entryDx=0;entryDy=0;fontFamily=Helvetica;fontSize=12;fontColor=#000000;endArrow=none;endFill=0;dashed=1;" parent="1" source="_mbPFh-2NSBxMbOMVfWc-57" target="_mbPFh-2NSBxMbOMVfWc-78" edge="1"><mxGeometry relative="1" as="geometry"/></mxCell><mxCell id="_mbPFh-2NSBxMbOMVfWc-82" value="uses" style="edgeLabel;html=1;align=center;verticalAlign=middle;resizable=0;points=[];fontSize=12;fontFamily=Helvetica;fontColor=#000000;" parent="_mbPFh-2NSBxMbOMVfWc-81" vertex="1" connectable="0"><mxGeometry x="0.1144" y="-1" relative="1" as="geometry"><mxPoint as="offset"/></mxGeometry></mxCell><mxCell id="_mbPFh-2NSBxMbOMVfWc-57" value="BookRepositoryImplProxy$" style="swimlane;fontStyle=1;align=center;verticalAlign=top;childLayout=stackLayout;horizontal=1;startSize=30;horizontalStack=0;resizeParent=1;resizeParentMax=0;resizeLast=0;collapsible=1;marginBottom=0;fillColor=#d5e8d4;strokeColor=#82b366;" parent="1" vertex="1"><mxGeometry x="583" y="1500" width="210" height="38" as="geometry"/></mxCell><mxCell id="_mbPFh-2NSBxMbOMVfWc-58" value="" style="line;strokeWidth=1;fillColor=none;align=left;verticalAlign=middle;spacingTop=-1;spacingLeft=3;spacingRight=3;rotatable=0;labelPosition=right;points=[];portConstraint=eastwest;strokeColor=inherit;" parent="_mbPFh-2NSBxMbOMVfWc-57" vertex="1"><mxGeometry y="30" width="210" height="8" as="geometry"/></mxCell><mxCell id="_mbPFh-2NSBxMbOMVfWc-64" style="rounded=0;orthogonalLoop=1;jettySize=auto;html=1;exitX=0;exitY=0.5;exitDx=0;exitDy=0;exitPerimeter=0;entryX=1;entryY=0.5;entryDx=0;entryDy=0;fontFamily=Helvetica;fontSize=12;fontColor=#000000;endArrow=none;endFill=0;dashed=1;" parent="1" source="_mbPFh-2NSBxMbOMVfWc-63" target="_mbPFh-2NSBxMbOMVfWc-57" edge="1"><mxGeometry relative="1" as="geometry"/></mxCell><mxCell id="_mbPFh-2NSBxMbOMVfWc-63" value="&lt;div style=&quot;text-align: left; font-size: 13px;&quot;&gt;&lt;font color=&quot;#000000&quot;&gt;Generated proxy class by Spring Data&lt;/font&gt;&lt;/div&gt;" style="shape=note;strokeWidth=2;fontSize=14;size=20;whiteSpace=wrap;html=1;fillColor=#fff2cc;strokeColor=#d6b656;" parent="1" vertex="1"><mxGeometry x="830" y="1420" width="246" height="40" as="geometry"/></mxCell><mxCell id="_mbPFh-2NSBxMbOMVfWc-67" style="edgeStyle=orthogonalEdgeStyle;rounded=0;orthogonalLoop=1;jettySize=auto;html=1;exitX=0.5;exitY=0;exitDx=0;exitDy=0;entryX=0.5;entryY=1;entryDx=0;entryDy=0;dashed=1;fontFamily=Helvetica;fontSize=12;fontColor=#000000;endArrow=classic;endFill=1;strokeColor=#FF0000;" parent="1" source="_mbPFh-2NSBxMbOMVfWc-65" target="_mbPFh-2NSBxMbOMVfWc-48" edge="1"><mxGeometry relative="1" as="geometry"><Array as="points"><mxPoint x="320" y="1490"/><mxPoint x="170" y="1490"/></Array></mxGeometry></mxCell><mxCell id="_mbPFh-2NSBxMbOMVfWc-68" value="depends on" style="edgeLabel;html=1;align=center;verticalAlign=middle;resizable=0;points=[];fontSize=12;fontFamily=Helvetica;fontColor=#FF0000;" parent="_mbPFh-2NSBxMbOMVfWc-67" vertex="1" connectable="0"><mxGeometry x="-0.1258" relative="1" as="geometry"><mxPoint x="26" y="29" as="offset"/></mxGeometry></mxCell><mxCell id="_mbPFh-2NSBxMbOMVfWc-91" style="edgeStyle=orthogonalEdgeStyle;rounded=0;orthogonalLoop=1;jettySize=auto;html=1;exitX=0.25;exitY=0;exitDx=0;exitDy=0;entryX=0.5;entryY=1;entryDx=0;entryDy=0;dashed=1;strokeColor=#000000;fontFamily=Helvetica;fontSize=12;fontColor=#FF0000;endArrow=block;endFill=0;" parent="1" source="_mbPFh-2NSBxMbOMVfWc-65" target="_mbPFh-2NSBxMbOMVfWc-89" edge="1"><mxGeometry relative="1" as="geometry"/></mxCell><mxCell id="_mbPFh-2NSBxMbOMVfWc-65" value="BookServiceImpl" style="swimlane;fontStyle=1;align=center;verticalAlign=top;childLayout=stackLayout;horizontal=1;startSize=30;horizontalStack=0;resizeParent=1;resizeParentMax=0;resizeLast=0;collapsible=1;marginBottom=0;fillColor=#f5f5f5;strokeColor=#666666;fontColor=#333333;" parent="1" vertex="1"><mxGeometry x="230" y="1600" width="180" height="38" as="geometry"/></mxCell><mxCell id="_mbPFh-2NSBxMbOMVfWc-66" value="" style="line;strokeWidth=1;fillColor=none;align=left;verticalAlign=middle;spacingTop=-1;spacingLeft=3;spacingRight=3;rotatable=0;labelPosition=right;points=[];portConstraint=eastwest;strokeColor=inherit;" parent="_mbPFh-2NSBxMbOMVfWc-65" vertex="1"><mxGeometry y="30" width="180" height="8" as="geometry"/></mxCell><mxCell id="_mbPFh-2NSBxMbOMVfWc-73" value="«interface»&#10;CustomBookRepo" style="swimlane;fontStyle=1;align=center;verticalAlign=top;childLayout=stackLayout;horizontal=1;startSize=40;horizontalStack=0;resizeParent=1;resizeParentMax=0;resizeLast=0;collapsible=1;marginBottom=0;fillColor=#f5f5f5;strokeColor=#666666;fontColor=#333333;" parent="1" vertex="1"><mxGeometry x="322" y="1280" width="180" height="48" as="geometry"/></mxCell><mxCell id="_mbPFh-2NSBxMbOMVfWc-74" value="" style="line;strokeWidth=1;fillColor=none;align=left;verticalAlign=middle;spacingTop=-1;spacingLeft=3;spacingRight=3;rotatable=0;labelPosition=right;points=[];portConstraint=eastwest;strokeColor=inherit;" parent="_mbPFh-2NSBxMbOMVfWc-73" vertex="1"><mxGeometry y="40" width="180" height="8" as="geometry"/></mxCell><mxCell id="_mbPFh-2NSBxMbOMVfWc-80" style="edgeStyle=orthogonalEdgeStyle;rounded=0;orthogonalLoop=1;jettySize=auto;html=1;exitX=0.75;exitY=0;exitDx=0;exitDy=0;entryX=0.75;entryY=1;entryDx=0;entryDy=0;fontFamily=Helvetica;fontSize=12;fontColor=#000000;endArrow=block;endFill=0;" parent="1" source="_mbPFh-2NSBxMbOMVfWc-78" target="_mbPFh-2NSBxMbOMVfWc-73" edge="1"><mxGeometry relative="1" as="geometry"/></mxCell><mxCell id="_mbPFh-2NSBxMbOMVfWc-78" value="CustomBookRepoImpl" style="swimlane;fontStyle=1;align=center;verticalAlign=top;childLayout=stackLayout;horizontal=1;startSize=40;horizontalStack=0;resizeParent=1;resizeParentMax=0;resizeLast=0;collapsible=1;marginBottom=0;fillColor=#f5f5f5;strokeColor=#666666;fontColor=#000000;" parent="1" vertex="1"><mxGeometry x="322" y="1390" width="180" height="48" as="geometry"/></mxCell><mxCell id="_mbPFh-2NSBxMbOMVfWc-79" value="" style="line;strokeWidth=1;fillColor=none;align=left;verticalAlign=middle;spacingTop=-1;spacingLeft=3;spacingRight=3;rotatable=0;labelPosition=right;points=[];portConstraint=eastwest;strokeColor=inherit;" parent="_mbPFh-2NSBxMbOMVfWc-78" vertex="1"><mxGeometry y="40" width="180" height="8" as="geometry"/></mxCell><mxCell id="_mbPFh-2NSBxMbOMVfWc-84" style="rounded=0;orthogonalLoop=1;jettySize=auto;html=1;exitX=0;exitY=1;exitDx=0;exitDy=0;exitPerimeter=0;entryX=1;entryY=0;entryDx=0;entryDy=0;dashed=1;fontFamily=Helvetica;fontSize=12;fontColor=#000000;endArrow=none;endFill=0;" parent="1" source="_mbPFh-2NSBxMbOMVfWc-83" target="_mbPFh-2NSBxMbOMVfWc-78" edge="1"><mxGeometry relative="1" as="geometry"/></mxCell><mxCell id="_mbPFh-2NSBxMbOMVfWc-83" value="&lt;font style=&quot;font-size: 12px;&quot; color=&quot;#000000&quot;&gt;Class name should be the same as the interface + &quot;Impl&quot; suffix&lt;/font&gt;" style="shape=note;strokeWidth=2;fontSize=14;size=20;whiteSpace=wrap;html=1;fillColor=#fff2cc;strokeColor=#d6b656;" parent="1" vertex="1"><mxGeometry x="530" y="1278" width="160" height="62" as="geometry"/></mxCell><mxCell id="_mbPFh-2NSBxMbOMVfWc-87" style="edgeStyle=none;rounded=0;orthogonalLoop=1;jettySize=auto;html=1;exitX=0.25;exitY=0;exitDx=0;exitDy=0;entryX=0.25;entryY=1;entryDx=0;entryDy=0;dashed=1;fontFamily=Helvetica;fontSize=12;fontColor=#000000;endArrow=classic;endFill=1;strokeColor=#FF0000;" parent="1" source="_mbPFh-2NSBxMbOMVfWc-85" target="_mbPFh-2NSBxMbOMVfWc-89" edge="1"><mxGeometry relative="1" as="geometry"/></mxCell><mxCell id="_mbPFh-2NSBxMbOMVfWc-88" value="depends on" style="edgeLabel;html=1;align=center;verticalAlign=middle;resizable=0;points=[];fontSize=12;fontFamily=Helvetica;fontColor=#FF0000;" parent="_mbPFh-2NSBxMbOMVfWc-87" vertex="1" connectable="0"><mxGeometry x="0.0076" y="1" relative="1" as="geometry"><mxPoint as="offset"/></mxGeometry></mxCell><mxCell id="_mbPFh-2NSBxMbOMVfWc-85" value="BookRestController" style="swimlane;fontStyle=1;align=center;verticalAlign=top;childLayout=stackLayout;horizontal=1;startSize=30;horizontalStack=0;resizeParent=1;resizeParentMax=0;resizeLast=0;collapsible=1;marginBottom=0;fillColor=#f5f5f5;strokeColor=#666666;fontColor=#333333;" parent="1" vertex="1"><mxGeometry x="45" y="1700" width="180" height="38" as="geometry"/></mxCell><mxCell id="_mbPFh-2NSBxMbOMVfWc-86" value="" style="line;strokeWidth=1;fillColor=none;align=left;verticalAlign=middle;spacingTop=-1;spacingLeft=3;spacingRight=3;rotatable=0;labelPosition=right;points=[];portConstraint=eastwest;strokeColor=inherit;" parent="_mbPFh-2NSBxMbOMVfWc-85" vertex="1"><mxGeometry y="30" width="180" height="8" as="geometry"/></mxCell><mxCell id="_mbPFh-2NSBxMbOMVfWc-89" value="«interface»&#10;BookService" style="swimlane;fontStyle=1;align=center;verticalAlign=top;childLayout=stackLayout;horizontal=1;startSize=40;horizontalStack=0;resizeParent=1;resizeParentMax=0;resizeLast=0;collapsible=1;marginBottom=0;fillColor=#f5f5f5;strokeColor=#666666;fontColor=#333333;" parent="1" vertex="1"><mxGeometry x="46" y="1510" width="180" height="48" as="geometry"/></mxCell><mxCell id="_mbPFh-2NSBxMbOMVfWc-90" value="" style="line;strokeWidth=1;fillColor=none;align=left;verticalAlign=middle;spacingTop=-1;spacingLeft=3;spacingRight=3;rotatable=0;labelPosition=right;points=[];portConstraint=eastwest;strokeColor=inherit;" parent="_mbPFh-2NSBxMbOMVfWc-89" vertex="1"><mxGeometry y="40" width="180" height="8" as="geometry"/></mxCell></root></mxGraphModel></diagram></mxfile>